<?xml version="1.0" encoding="utf-8" standalone="no"?>
<!DOCTYPE svg PUBLIC "-//W3C//DTD SVG 1.1//EN"
  "http://www.w3.org/Graphics/SVG/1.1/DTD/svg11.dtd">
<svg xmlns:xlink="http://www.w3.org/1999/xlink" width="360pt" height="360pt" viewBox="0 0 360 360" xmlns="http://www.w3.org/2000/svg" version="1.1">
 <metadata>
  <rdf:RDF xmlns:dc="http://purl.org/dc/elements/1.1/" xmlns:cc="http://creativecommons.org/ns#" xmlns:rdf="http://www.w3.org/1999/02/22-rdf-syntax-ns#">
   <cc:Work>
    <dc:type rdf:resource="http://purl.org/dc/dcmitype/StillImage"/>
    <dc:date>2024-08-02T11:39:41.361766</dc:date>
    <dc:format>image/svg+xml</dc:format>
    <dc:creator>
     <cc:Agent>
      <dc:title>Matplotlib v3.7.1, https://matplotlib.org/</dc:title>
     </cc:Agent>
    </dc:creator>
   </cc:Work>
  </rdf:RDF>
 </metadata>
 <defs>
  <style type="text/css">*{stroke-linejoin: round; stroke-linecap: butt}</style>
 </defs>
 <g id="figure_1">
  <g id="patch_1">
   <path d="M 0 360 
L 360 360 
L 360 0 
L 0 0 
z
" style="fill: #ffffff"/>
  </g>
  <g id="axes_1">
   <g id="patch_2">
    <path d="M 47.72 332.12 
L 349.2 332.12 
L 349.2 13.693338 
L 47.72 13.693338 
z
" style="fill: #ffffff"/>
   </g>
   <g id="PolyCollection_1">
    <defs>
     <path id="me7555e6432" d="M 61.423636 -27.88005 
L 61.423636 -27.88 
L 62.800886 -27.88 
L 64.178136 -27.88 
L 65.555386 -27.88 
L 66.932636 -27.88 
L 68.309886 -27.88 
L 69.687136 -27.88 
L 71.064386 -27.88 
L 72.441635 -27.88 
L 73.818885 -27.88 
L 75.196135 -27.88 
L 76.573385 -27.88 
L 77.950635 -27.88 
L 79.327885 -27.88 
L 80.705135 -27.88 
L 82.082385 -27.88 
L 83.459635 -27.88 
L 84.836884 -27.88 
L 86.214134 -27.88 
L 87.591384 -27.88 
L 88.968634 -27.88 
L 90.345884 -27.88 
L 91.723134 -27.88 
L 93.100384 -27.88 
L 94.477634 -27.88 
L 95.854884 -27.88 
L 97.232133 -27.88 
L 98.609383 -27.88 
L 99.986633 -27.88 
L 101.363883 -27.88 
L 102.741133 -27.88 
L 104.118383 -27.88 
L 105.495633 -27.88 
L 106.872883 -27.88 
L 108.250132 -27.88 
L 109.627382 -27.88 
L 111.004632 -27.88 
L 112.381882 -27.88 
L 113.759132 -27.88 
L 115.136382 -27.88 
L 116.513632 -27.88 
L 117.890882 -27.88 
L 119.268132 -27.88 
L 120.645381 -27.88 
L 122.022631 -27.88 
L 123.399881 -27.88 
L 124.777131 -27.88 
L 126.154381 -27.88 
L 127.531631 -27.88 
L 128.908881 -27.88 
L 130.286131 -27.88 
L 131.663381 -27.88 
L 133.04063 -27.88 
L 134.41788 -27.88 
L 135.79513 -27.88 
L 137.17238 -27.88 
L 138.54963 -27.88 
L 139.92688 -27.88 
L 141.30413 -27.88 
L 142.68138 -27.88 
L 144.05863 -27.88 
L 145.435879 -27.88 
L 146.813129 -27.88 
L 148.190379 -27.88 
L 149.567629 -27.88 
L 150.944879 -27.88 
L 152.322129 -27.88 
L 153.699379 -27.88 
L 155.076629 -27.88 
L 156.453878 -27.88 
L 157.831128 -27.88 
L 159.208378 -27.88 
L 160.585628 -27.88 
L 161.962878 -27.88 
L 163.340128 -27.88 
L 164.717378 -27.88 
L 166.094628 -27.88 
L 167.471878 -27.88 
L 168.849127 -27.88 
L 170.226377 -27.88 
L 171.603627 -27.88 
L 172.980877 -27.88 
L 174.358127 -27.88 
L 175.735377 -27.88 
L 177.112627 -27.88 
L 178.489877 -27.88 
L 179.867127 -27.88 
L 181.244376 -27.88 
L 182.621626 -27.88 
L 183.998876 -27.88 
L 185.376126 -27.88 
L 186.753376 -27.88 
L 188.130626 -27.88 
L 189.507876 -27.88 
L 190.885126 -27.88 
L 192.262376 -27.88 
L 193.639625 -27.88 
L 195.016875 -27.88 
L 196.394125 -27.88 
L 197.771375 -27.88 
L 199.148625 -27.88 
L 200.525875 -27.88 
L 201.903125 -27.88 
L 203.280375 -27.88 
L 204.657624 -27.88 
L 206.034874 -27.88 
L 207.412124 -27.88 
L 208.789374 -27.88 
L 210.166624 -27.88 
L 211.543874 -27.88 
L 212.921124 -27.88 
L 214.298374 -27.88 
L 215.675624 -27.88 
L 217.052873 -27.88 
L 218.430123 -27.88 
L 219.807373 -27.88 
L 221.184623 -27.88 
L 222.561873 -27.88 
L 223.939123 -27.88 
L 225.316373 -27.88 
L 226.693623 -27.88 
L 228.070873 -27.88 
L 229.448122 -27.88 
L 230.825372 -27.88 
L 232.202622 -27.88 
L 233.579872 -27.88 
L 234.957122 -27.88 
L 236.334372 -27.88 
L 237.711622 -27.88 
L 239.088872 -27.88 
L 240.466122 -27.88 
L 241.843371 -27.88 
L 243.220621 -27.88 
L 244.597871 -27.88 
L 245.975121 -27.88 
L 247.352371 -27.88 
L 248.729621 -27.88 
L 250.106871 -27.88 
L 251.484121 -27.88 
L 252.86137 -27.88 
L 254.23862 -27.88 
L 255.61587 -27.88 
L 256.99312 -27.88 
L 258.37037 -27.88 
L 259.74762 -27.88 
L 261.12487 -27.88 
L 262.50212 -27.88 
L 263.87937 -27.88 
L 265.256619 -27.88 
L 266.633869 -27.88 
L 268.011119 -27.88 
L 269.388369 -27.88 
L 270.765619 -27.88 
L 272.142869 -27.88 
L 273.520119 -27.88 
L 274.897369 -27.88 
L 276.274619 -27.88 
L 277.651868 -27.88 
L 279.029118 -27.88 
L 280.406368 -27.88 
L 281.783618 -27.88 
L 283.160868 -27.88 
L 284.538118 -27.88 
L 285.915368 -27.88 
L 287.292618 -27.88 
L 288.669868 -27.88 
L 290.047117 -27.88 
L 291.424367 -27.88 
L 292.801617 -27.88 
L 294.178867 -27.88 
L 295.556117 -27.88 
L 296.933367 -27.88 
L 298.310617 -27.88 
L 299.687867 -27.88 
L 301.065116 -27.88 
L 302.442366 -27.88 
L 303.819616 -27.88 
L 305.196866 -27.88 
L 306.574116 -27.88 
L 307.951366 -27.88 
L 309.328616 -27.88 
L 310.705866 -27.88 
L 312.083116 -27.88 
L 313.460365 -27.88 
L 314.837615 -27.88 
L 316.214865 -27.88 
L 317.592115 -27.88 
L 318.969365 -27.88 
L 320.346615 -27.88 
L 321.723865 -27.88 
L 323.101115 -27.88 
L 324.478365 -27.88 
L 325.855614 -27.88 
L 327.232864 -27.88 
L 328.610114 -27.88 
L 329.987364 -27.88 
L 331.364614 -27.88 
L 332.741864 -27.88 
L 334.119114 -27.88 
L 335.496364 -27.88 
L 335.496364 -27.880475 
L 335.496364 -27.880475 
L 334.119114 -27.883216 
L 332.741864 -27.896813 
L 331.364614 -27.948786 
L 329.987364 -28.104089 
L 328.610114 -28.474056 
L 327.232864 -29.196465 
L 325.855614 -30.395986 
L 324.478365 -32.160025 
L 323.101115 -34.534903 
L 321.723865 -37.519698 
L 320.346615 -41.077264 
L 318.969365 -45.186851 
L 317.592115 -49.872031 
L 316.214865 -55.138175 
L 314.837615 -60.913851 
L 313.460365 -67.107953 
L 312.083116 -73.672394 
L 310.705866 -80.546219 
L 309.328616 -87.614931 
L 307.951366 -94.819305 
L 306.574116 -102.263677 
L 305.196866 -110.098447 
L 303.819616 -118.264207 
L 302.442366 -126.448657 
L 301.065116 -134.35039 
L 299.687867 -141.932182 
L 298.310617 -149.403858 
L 296.933367 -157.025558 
L 295.556117 -164.941415 
L 294.178867 -173.096099 
L 292.801617 -181.240334 
L 291.424367 -189.108131 
L 290.047117 -196.66294 
L 288.669868 -204.077554 
L 287.292618 -211.395444 
L 285.915368 -218.366207 
L 284.538118 -224.759292 
L 283.160868 -230.669045 
L 281.783618 -236.360475 
L 280.406368 -241.988838 
L 279.029118 -247.583799 
L 277.651868 -253.121812 
L 276.274619 -258.485168 
L 274.897369 -263.480309 
L 273.520119 -268.027918 
L 272.142869 -272.278627 
L 270.765619 -276.451299 
L 269.388369 -280.577972 
L 268.011119 -284.480231 
L 266.633869 -287.978725 
L 265.256619 -290.975249 
L 263.87937 -293.356563 
L 262.50212 -295.062715 
L 261.12487 -296.245583 
L 259.74762 -297.154884 
L 258.37037 -297.871576 
L 256.99312 -298.291165 
L 255.61587 -298.35663 
L 254.23862 -298.196003 
L 252.86137 -298.026809 
L 251.484121 -297.956492 
L 250.106871 -297.832201 
L 248.729621 -297.358626 
L 247.352371 -296.470323 
L 245.975121 -295.413877 
L 244.597871 -294.320821 
L 243.220621 -292.919135 
L 241.843371 -290.846513 
L 240.466122 -288.095934 
L 239.088872 -284.979904 
L 237.711622 -281.78025 
L 236.334372 -278.619625 
L 234.957122 -275.539959 
L 233.579872 -272.517363 
L 232.202622 -269.457289 
L 230.825372 -266.206454 
L 229.448122 -262.576826 
L 228.070873 -258.501477 
L 226.693623 -254.174911 
L 225.316373 -249.888134 
L 223.939123 -245.759715 
L 222.561873 -241.719555 
L 221.184623 -237.624707 
L 219.807373 -233.327635 
L 218.430123 -228.787583 
L 217.052873 -224.134036 
L 215.675624 -219.520573 
L 214.298374 -214.973901 
L 212.921124 -210.424801 
L 211.543874 -205.787631 
L 210.166624 -201.030605 
L 208.789374 -196.261658 
L 207.412124 -191.653974 
L 206.034874 -187.217255 
L 204.657624 -182.778607 
L 203.280375 -178.210249 
L 201.903125 -173.508003 
L 200.525875 -168.666723 
L 199.148625 -163.678853 
L 197.771375 -158.659744 
L 196.394125 -153.813402 
L 195.016875 -149.227715 
L 193.639625 -144.806386 
L 192.262376 -140.489965 
L 190.885126 -136.420901 
L 189.507876 -132.710745 
L 188.130626 -129.159167 
L 186.753376 -125.42236 
L 185.376126 -121.408822 
L 183.998876 -117.342402 
L 182.621626 -113.452049 
L 181.244376 -109.7698 
L 179.867127 -106.245114 
L 178.489877 -102.833111 
L 177.112627 -99.441068 
L 175.735377 -96.011065 
L 174.358127 -92.641303 
L 172.980877 -89.44491 
L 171.603627 -86.359192 
L 170.226377 -83.247904 
L 168.849127 -80.123301 
L 167.471878 -77.134287 
L 166.094628 -74.373917 
L 164.717378 -71.809989 
L 163.340128 -69.378683 
L 161.962878 -67.053285 
L 160.585628 -64.829712 
L 159.208378 -62.690503 
L 157.831128 -60.597808 
L 156.453878 -58.541285 
L 155.076629 -56.576309 
L 153.699379 -54.77015 
L 152.322129 -53.127874 
L 150.944879 -51.607171 
L 149.567629 -50.176809 
L 148.190379 -48.814872 
L 146.813129 -47.473048 
L 145.435879 -46.108142 
L 144.05863 -44.744582 
L 142.68138 -43.451036 
L 141.30413 -42.263645 
L 139.92688 -41.167581 
L 138.54963 -40.137306 
L 137.17238 -39.168967 
L 135.79513 -38.279607 
L 134.41788 -37.484149 
L 133.04063 -36.773595 
L 131.663381 -36.121266 
L 130.286131 -35.512295 
L 128.908881 -34.945919 
L 127.531631 -34.394959 
L 126.154381 -33.806134 
L 124.777131 -33.173025 
L 123.399881 -32.565317 
L 122.022631 -32.059542 
L 120.645381 -31.667367 
L 119.268132 -31.339312 
L 117.890882 -31.023651 
L 116.513632 -30.712751 
L 115.136382 -30.429661 
L 113.759132 -30.181724 
L 112.381882 -29.950958 
L 111.004632 -29.725321 
L 109.627382 -29.508744 
L 108.250132 -29.303096 
L 106.872883 -29.108618 
L 105.495633 -28.9376 
L 104.118383 -28.804932 
L 102.741133 -28.709346 
L 101.363883 -28.635491 
L 99.986633 -28.565867 
L 98.609383 -28.487187 
L 97.232133 -28.397636 
L 95.854884 -28.309697 
L 94.477634 -28.238169 
L 93.100384 -28.186949 
L 91.723134 -28.15036 
L 90.345884 -28.121458 
L 88.968634 -28.09461 
L 87.591384 -28.065223 
L 86.214134 -28.03202 
L 84.836884 -27.997987 
L 83.459635 -27.967431 
L 82.082385 -27.94305 
L 80.705135 -27.925628 
L 79.327885 -27.914666 
L 77.950635 -27.908192 
L 76.573385 -27.903251 
L 75.196135 -27.898052 
L 73.818885 -27.892966 
L 72.441635 -27.889104 
L 71.064386 -27.886927 
L 69.687136 -27.885951 
L 68.309886 -27.885084 
L 66.932636 -27.88365 
L 65.555386 -27.882001 
L 64.178136 -27.880806 
L 62.800886 -27.880236 
L 61.423636 -27.88005 
z
" style="stroke: #1f77b4"/>
    </defs>
    <g clip-path="url(#p8c6a23431e)">
     <use xlink:href="#me7555e6432" x="0" y="360" style="fill: #1f77b4; fill-opacity: 0.25; stroke: #1f77b4"/>
    </g>
   </g>
   <g id="matplotlib.axis_1">
    <g id="xtick_1">
     <g id="line2d_1">
      <defs>
       <path id="m9cc566c8ea" d="M 0 0 
L 0 3.5 
" style="stroke: #000000; stroke-width: 0.8"/>
      </defs>
      <g>
       <use xlink:href="#m9cc566c8ea" x="72.767236" y="332.12" style="stroke: #000000; stroke-width: 0.8"/>
      </g>
     </g>
     <g id="text_1">
      <!-- 2.3 -->
      <g transform="translate(64.815674 346.718437) scale(0.1 -0.1)">
       <defs>
        <path id="DejaVuSans-32" d="M 1228 531 
L 3431 531 
L 3431 0 
L 469 0 
L 469 531 
Q 828 903 1448 1529 
Q 2069 2156 2228 2338 
Q 2531 2678 2651 2914 
Q 2772 3150 2772 3378 
Q 2772 3750 2511 3984 
Q 2250 4219 1831 4219 
Q 1534 4219 1204 4116 
Q 875 4013 500 3803 
L 500 4441 
Q 881 4594 1212 4672 
Q 1544 4750 1819 4750 
Q 2544 4750 2975 4387 
Q 3406 4025 3406 3419 
Q 3406 3131 3298 2873 
Q 3191 2616 2906 2266 
Q 2828 2175 2409 1742 
Q 1991 1309 1228 531 
z
" transform="scale(0.015625)"/>
        <path id="DejaVuSans-2e" d="M 684 794 
L 1344 794 
L 1344 0 
L 684 0 
L 684 794 
z
" transform="scale(0.015625)"/>
        <path id="DejaVuSans-33" d="M 2597 2516 
Q 3050 2419 3304 2112 
Q 3559 1806 3559 1356 
Q 3559 666 3084 287 
Q 2609 -91 1734 -91 
Q 1441 -91 1130 -33 
Q 819 25 488 141 
L 488 750 
Q 750 597 1062 519 
Q 1375 441 1716 441 
Q 2309 441 2620 675 
Q 2931 909 2931 1356 
Q 2931 1769 2642 2001 
Q 2353 2234 1838 2234 
L 1294 2234 
L 1294 2753 
L 1863 2753 
Q 2328 2753 2575 2939 
Q 2822 3125 2822 3475 
Q 2822 3834 2567 4026 
Q 2313 4219 1838 4219 
Q 1578 4219 1281 4162 
Q 984 4106 628 3988 
L 628 4550 
Q 988 4650 1302 4700 
Q 1616 4750 1894 4750 
Q 2613 4750 3031 4423 
Q 3450 4097 3450 3541 
Q 3450 3153 3228 2886 
Q 3006 2619 2597 2516 
z
" transform="scale(0.015625)"/>
       </defs>
       <use xlink:href="#DejaVuSans-32"/>
       <use xlink:href="#DejaVuSans-2e" x="63.623047"/>
       <use xlink:href="#DejaVuSans-33" x="95.410156"/>
      </g>
     </g>
    </g>
    <g id="xtick_2">
     <g id="line2d_2">
      <g>
       <use xlink:href="#m9cc566c8ea" x="110.860863" y="332.12" style="stroke: #000000; stroke-width: 0.8"/>
      </g>
     </g>
     <g id="text_2">
      <!-- 2.4 -->
      <g transform="translate(102.9093 346.718437) scale(0.1 -0.1)">
       <defs>
        <path id="DejaVuSans-34" d="M 2419 4116 
L 825 1625 
L 2419 1625 
L 2419 4116 
z
M 2253 4666 
L 3047 4666 
L 3047 1625 
L 3713 1625 
L 3713 1100 
L 3047 1100 
L 3047 0 
L 2419 0 
L 2419 1100 
L 313 1100 
L 313 1709 
L 2253 4666 
z
" transform="scale(0.015625)"/>
       </defs>
       <use xlink:href="#DejaVuSans-32"/>
       <use xlink:href="#DejaVuSans-2e" x="63.623047"/>
       <use xlink:href="#DejaVuSans-34" x="95.410156"/>
      </g>
     </g>
    </g>
    <g id="xtick_3">
     <g id="line2d_3">
      <g>
       <use xlink:href="#m9cc566c8ea" x="148.954489" y="332.12" style="stroke: #000000; stroke-width: 0.8"/>
      </g>
     </g>
     <g id="text_3">
      <!-- 2.5 -->
      <g transform="translate(141.002926 346.718437) scale(0.1 -0.1)">
       <defs>
        <path id="DejaVuSans-35" d="M 691 4666 
L 3169 4666 
L 3169 4134 
L 1269 4134 
L 1269 2991 
Q 1406 3038 1543 3061 
Q 1681 3084 1819 3084 
Q 2600 3084 3056 2656 
Q 3513 2228 3513 1497 
Q 3513 744 3044 326 
Q 2575 -91 1722 -91 
Q 1428 -91 1123 -41 
Q 819 9 494 109 
L 494 744 
Q 775 591 1075 516 
Q 1375 441 1709 441 
Q 2250 441 2565 725 
Q 2881 1009 2881 1497 
Q 2881 1984 2565 2268 
Q 2250 2553 1709 2553 
Q 1456 2553 1204 2497 
Q 953 2441 691 2322 
L 691 4666 
z
" transform="scale(0.015625)"/>
       </defs>
       <use xlink:href="#DejaVuSans-32"/>
       <use xlink:href="#DejaVuSans-2e" x="63.623047"/>
       <use xlink:href="#DejaVuSans-35" x="95.410156"/>
      </g>
     </g>
    </g>
    <g id="xtick_4">
     <g id="line2d_4">
      <g>
       <use xlink:href="#m9cc566c8ea" x="187.048115" y="332.12" style="stroke: #000000; stroke-width: 0.8"/>
      </g>
     </g>
     <g id="text_4">
      <!-- 2.6 -->
      <g transform="translate(179.096553 346.718437) scale(0.1 -0.1)">
       <defs>
        <path id="DejaVuSans-36" d="M 2113 2584 
Q 1688 2584 1439 2293 
Q 1191 2003 1191 1497 
Q 1191 994 1439 701 
Q 1688 409 2113 409 
Q 2538 409 2786 701 
Q 3034 994 3034 1497 
Q 3034 2003 2786 2293 
Q 2538 2584 2113 2584 
z
M 3366 4563 
L 3366 3988 
Q 3128 4100 2886 4159 
Q 2644 4219 2406 4219 
Q 1781 4219 1451 3797 
Q 1122 3375 1075 2522 
Q 1259 2794 1537 2939 
Q 1816 3084 2150 3084 
Q 2853 3084 3261 2657 
Q 3669 2231 3669 1497 
Q 3669 778 3244 343 
Q 2819 -91 2113 -91 
Q 1303 -91 875 529 
Q 447 1150 447 2328 
Q 447 3434 972 4092 
Q 1497 4750 2381 4750 
Q 2619 4750 2861 4703 
Q 3103 4656 3366 4563 
z
" transform="scale(0.015625)"/>
       </defs>
       <use xlink:href="#DejaVuSans-32"/>
       <use xlink:href="#DejaVuSans-2e" x="63.623047"/>
       <use xlink:href="#DejaVuSans-36" x="95.410156"/>
      </g>
     </g>
    </g>
    <g id="xtick_5">
     <g id="line2d_5">
      <g>
       <use xlink:href="#m9cc566c8ea" x="225.141741" y="332.12" style="stroke: #000000; stroke-width: 0.8"/>
      </g>
     </g>
     <g id="text_5">
      <!-- 2.7 -->
      <g transform="translate(217.190179 346.718437) scale(0.1 -0.1)">
       <defs>
        <path id="DejaVuSans-37" d="M 525 4666 
L 3525 4666 
L 3525 4397 
L 1831 0 
L 1172 0 
L 2766 4134 
L 525 4134 
L 525 4666 
z
" transform="scale(0.015625)"/>
       </defs>
       <use xlink:href="#DejaVuSans-32"/>
       <use xlink:href="#DejaVuSans-2e" x="63.623047"/>
       <use xlink:href="#DejaVuSans-37" x="95.410156"/>
      </g>
     </g>
    </g>
    <g id="xtick_6">
     <g id="line2d_6">
      <g>
       <use xlink:href="#m9cc566c8ea" x="263.235368" y="332.12" style="stroke: #000000; stroke-width: 0.8"/>
      </g>
     </g>
     <g id="text_6">
      <!-- 2.8 -->
      <g transform="translate(255.283805 346.718437) scale(0.1 -0.1)">
       <defs>
        <path id="DejaVuSans-38" d="M 2034 2216 
Q 1584 2216 1326 1975 
Q 1069 1734 1069 1313 
Q 1069 891 1326 650 
Q 1584 409 2034 409 
Q 2484 409 2743 651 
Q 3003 894 3003 1313 
Q 3003 1734 2745 1975 
Q 2488 2216 2034 2216 
z
M 1403 2484 
Q 997 2584 770 2862 
Q 544 3141 544 3541 
Q 544 4100 942 4425 
Q 1341 4750 2034 4750 
Q 2731 4750 3128 4425 
Q 3525 4100 3525 3541 
Q 3525 3141 3298 2862 
Q 3072 2584 2669 2484 
Q 3125 2378 3379 2068 
Q 3634 1759 3634 1313 
Q 3634 634 3220 271 
Q 2806 -91 2034 -91 
Q 1263 -91 848 271 
Q 434 634 434 1313 
Q 434 1759 690 2068 
Q 947 2378 1403 2484 
z
M 1172 3481 
Q 1172 3119 1398 2916 
Q 1625 2713 2034 2713 
Q 2441 2713 2670 2916 
Q 2900 3119 2900 3481 
Q 2900 3844 2670 4047 
Q 2441 4250 2034 4250 
Q 1625 4250 1398 4047 
Q 1172 3844 1172 3481 
z
" transform="scale(0.015625)"/>
       </defs>
       <use xlink:href="#DejaVuSans-32"/>
       <use xlink:href="#DejaVuSans-2e" x="63.623047"/>
       <use xlink:href="#DejaVuSans-38" x="95.410156"/>
      </g>
     </g>
    </g>
    <g id="xtick_7">
     <g id="line2d_7">
      <g>
       <use xlink:href="#m9cc566c8ea" x="301.328994" y="332.12" style="stroke: #000000; stroke-width: 0.8"/>
      </g>
     </g>
     <g id="text_7">
      <!-- 2.9 -->
      <g transform="translate(293.377432 346.718437) scale(0.1 -0.1)">
       <defs>
        <path id="DejaVuSans-39" d="M 703 97 
L 703 672 
Q 941 559 1184 500 
Q 1428 441 1663 441 
Q 2288 441 2617 861 
Q 2947 1281 2994 2138 
Q 2813 1869 2534 1725 
Q 2256 1581 1919 1581 
Q 1219 1581 811 2004 
Q 403 2428 403 3163 
Q 403 3881 828 4315 
Q 1253 4750 1959 4750 
Q 2769 4750 3195 4129 
Q 3622 3509 3622 2328 
Q 3622 1225 3098 567 
Q 2575 -91 1691 -91 
Q 1453 -91 1209 -44 
Q 966 3 703 97 
z
M 1959 2075 
Q 2384 2075 2632 2365 
Q 2881 2656 2881 3163 
Q 2881 3666 2632 3958 
Q 2384 4250 1959 4250 
Q 1534 4250 1286 3958 
Q 1038 3666 1038 3163 
Q 1038 2656 1286 2365 
Q 1534 2075 1959 2075 
z
" transform="scale(0.015625)"/>
       </defs>
       <use xlink:href="#DejaVuSans-32"/>
       <use xlink:href="#DejaVuSans-2e" x="63.623047"/>
       <use xlink:href="#DejaVuSans-39" x="95.410156"/>
      </g>
     </g>
    </g>
    <g id="xtick_8">
     <g id="line2d_8">
      <g>
       <use xlink:href="#m9cc566c8ea" x="339.42262" y="332.12" style="stroke: #000000; stroke-width: 0.8"/>
      </g>
     </g>
     <g id="text_8">
      <!-- 3.0 -->
      <g transform="translate(331.471058 346.718437) scale(0.1 -0.1)">
       <defs>
        <path id="DejaVuSans-30" d="M 2034 4250 
Q 1547 4250 1301 3770 
Q 1056 3291 1056 2328 
Q 1056 1369 1301 889 
Q 1547 409 2034 409 
Q 2525 409 2770 889 
Q 3016 1369 3016 2328 
Q 3016 3291 2770 3770 
Q 2525 4250 2034 4250 
z
M 2034 4750 
Q 2819 4750 3233 4129 
Q 3647 3509 3647 2328 
Q 3647 1150 3233 529 
Q 2819 -91 2034 -91 
Q 1250 -91 836 529 
Q 422 1150 422 2328 
Q 422 3509 836 4129 
Q 1250 4750 2034 4750 
z
" transform="scale(0.015625)"/>
       </defs>
       <use xlink:href="#DejaVuSans-33"/>
       <use xlink:href="#DejaVuSans-2e" x="63.623047"/>
       <use xlink:href="#DejaVuSans-30" x="95.410156"/>
      </g>
     </g>
    </g>
   </g>
   <g id="matplotlib.axis_2">
    <g id="ytick_1">
     <g id="line2d_9">
      <defs>
       <path id="m9322940ca8" d="M 0 0 
L -3.5 0 
" style="stroke: #000000; stroke-width: 0.8"/>
      </defs>
      <g>
       <use xlink:href="#m9322940ca8" x="47.72" y="332.12" style="stroke: #000000; stroke-width: 0.8"/>
      </g>
     </g>
     <g id="text_9">
      <!-- 0.0 -->
      <g transform="translate(24.816875 335.919219) scale(0.1 -0.1)">
       <use xlink:href="#DejaVuSans-30"/>
       <use xlink:href="#DejaVuSans-2e" x="63.623047"/>
       <use xlink:href="#DejaVuSans-30" x="95.410156"/>
      </g>
     </g>
    </g>
    <g id="ytick_2">
     <g id="line2d_10">
      <g>
       <use xlink:href="#m9322940ca8" x="47.72" y="296.73926" style="stroke: #000000; stroke-width: 0.8"/>
      </g>
     </g>
     <g id="text_10">
      <!-- 0.5 -->
      <g transform="translate(24.816875 300.538478) scale(0.1 -0.1)">
       <use xlink:href="#DejaVuSans-30"/>
       <use xlink:href="#DejaVuSans-2e" x="63.623047"/>
       <use xlink:href="#DejaVuSans-35" x="95.410156"/>
      </g>
     </g>
    </g>
    <g id="ytick_3">
     <g id="line2d_11">
      <g>
       <use xlink:href="#m9322940ca8" x="47.72" y="261.358519" style="stroke: #000000; stroke-width: 0.8"/>
      </g>
     </g>
     <g id="text_11">
      <!-- 1.0 -->
      <g transform="translate(24.816875 265.157738) scale(0.1 -0.1)">
       <defs>
        <path id="DejaVuSans-31" d="M 794 531 
L 1825 531 
L 1825 4091 
L 703 3866 
L 703 4441 
L 1819 4666 
L 2450 4666 
L 2450 531 
L 3481 531 
L 3481 0 
L 794 0 
L 794 531 
z
" transform="scale(0.015625)"/>
       </defs>
       <use xlink:href="#DejaVuSans-31"/>
       <use xlink:href="#DejaVuSans-2e" x="63.623047"/>
       <use xlink:href="#DejaVuSans-30" x="95.410156"/>
      </g>
     </g>
    </g>
    <g id="ytick_4">
     <g id="line2d_12">
      <g>
       <use xlink:href="#m9322940ca8" x="47.72" y="225.977779" style="stroke: #000000; stroke-width: 0.8"/>
      </g>
     </g>
     <g id="text_12">
      <!-- 1.5 -->
      <g transform="translate(24.816875 229.776998) scale(0.1 -0.1)">
       <use xlink:href="#DejaVuSans-31"/>
       <use xlink:href="#DejaVuSans-2e" x="63.623047"/>
       <use xlink:href="#DejaVuSans-35" x="95.410156"/>
      </g>
     </g>
    </g>
    <g id="ytick_5">
     <g id="line2d_13">
      <g>
       <use xlink:href="#m9322940ca8" x="47.72" y="190.597039" style="stroke: #000000; stroke-width: 0.8"/>
      </g>
     </g>
     <g id="text_13">
      <!-- 2.0 -->
      <g transform="translate(24.816875 194.396258) scale(0.1 -0.1)">
       <use xlink:href="#DejaVuSans-32"/>
       <use xlink:href="#DejaVuSans-2e" x="63.623047"/>
       <use xlink:href="#DejaVuSans-30" x="95.410156"/>
      </g>
     </g>
    </g>
    <g id="ytick_6">
     <g id="line2d_14">
      <g>
       <use xlink:href="#m9322940ca8" x="47.72" y="155.216299" style="stroke: #000000; stroke-width: 0.8"/>
      </g>
     </g>
     <g id="text_14">
      <!-- 2.5 -->
      <g transform="translate(24.816875 159.015517) scale(0.1 -0.1)">
       <use xlink:href="#DejaVuSans-32"/>
       <use xlink:href="#DejaVuSans-2e" x="63.623047"/>
       <use xlink:href="#DejaVuSans-35" x="95.410156"/>
      </g>
     </g>
    </g>
    <g id="ytick_7">
     <g id="line2d_15">
      <g>
       <use xlink:href="#m9322940ca8" x="47.72" y="119.835558" style="stroke: #000000; stroke-width: 0.8"/>
      </g>
     </g>
     <g id="text_15">
      <!-- 3.0 -->
      <g transform="translate(24.816875 123.634777) scale(0.1 -0.1)">
       <use xlink:href="#DejaVuSans-33"/>
       <use xlink:href="#DejaVuSans-2e" x="63.623047"/>
       <use xlink:href="#DejaVuSans-30" x="95.410156"/>
      </g>
     </g>
    </g>
    <g id="ytick_8">
     <g id="line2d_16">
      <g>
       <use xlink:href="#m9322940ca8" x="47.72" y="84.454818" style="stroke: #000000; stroke-width: 0.8"/>
      </g>
     </g>
     <g id="text_16">
      <!-- 3.5 -->
      <g transform="translate(24.816875 88.254037) scale(0.1 -0.1)">
       <use xlink:href="#DejaVuSans-33"/>
       <use xlink:href="#DejaVuSans-2e" x="63.623047"/>
       <use xlink:href="#DejaVuSans-35" x="95.410156"/>
      </g>
     </g>
    </g>
    <g id="ytick_9">
     <g id="line2d_17">
      <g>
       <use xlink:href="#m9322940ca8" x="47.72" y="49.074078" style="stroke: #000000; stroke-width: 0.8"/>
      </g>
     </g>
     <g id="text_17">
      <!-- 4.0 -->
      <g transform="translate(24.816875 52.873297) scale(0.1 -0.1)">
       <use xlink:href="#DejaVuSans-34"/>
       <use xlink:href="#DejaVuSans-2e" x="63.623047"/>
       <use xlink:href="#DejaVuSans-30" x="95.410156"/>
      </g>
     </g>
    </g>
    <g id="ytick_10">
     <g id="line2d_18">
      <g>
       <use xlink:href="#m9322940ca8" x="47.72" y="13.693338" style="stroke: #000000; stroke-width: 0.8"/>
      </g>
     </g>
     <g id="text_18">
      <!-- 4.5 -->
      <g transform="translate(24.816875 17.492556) scale(0.1 -0.1)">
       <use xlink:href="#DejaVuSans-34"/>
       <use xlink:href="#DejaVuSans-2e" x="63.623047"/>
       <use xlink:href="#DejaVuSans-35" x="95.410156"/>
      </g>
     </g>
    </g>
    <g id="text_19">
     <!-- Density -->
     <g transform="translate(18.737188 191.915263) rotate(-90) scale(0.1 -0.1)">
      <defs>
       <path id="DejaVuSans-44" d="M 1259 4147 
L 1259 519 
L 2022 519 
Q 2988 519 3436 956 
Q 3884 1394 3884 2338 
Q 3884 3275 3436 3711 
Q 2988 4147 2022 4147 
L 1259 4147 
z
M 628 4666 
L 1925 4666 
Q 3281 4666 3915 4102 
Q 4550 3538 4550 2338 
Q 4550 1131 3912 565 
Q 3275 0 1925 0 
L 628 0 
L 628 4666 
z
" transform="scale(0.015625)"/>
       <path id="DejaVuSans-65" d="M 3597 1894 
L 3597 1613 
L 953 1613 
Q 991 1019 1311 708 
Q 1631 397 2203 397 
Q 2534 397 2845 478 
Q 3156 559 3463 722 
L 3463 178 
Q 3153 47 2828 -22 
Q 2503 -91 2169 -91 
Q 1331 -91 842 396 
Q 353 884 353 1716 
Q 353 2575 817 3079 
Q 1281 3584 2069 3584 
Q 2775 3584 3186 3129 
Q 3597 2675 3597 1894 
z
M 3022 2063 
Q 3016 2534 2758 2815 
Q 2500 3097 2075 3097 
Q 1594 3097 1305 2825 
Q 1016 2553 972 2059 
L 3022 2063 
z
" transform="scale(0.015625)"/>
       <path id="DejaVuSans-6e" d="M 3513 2113 
L 3513 0 
L 2938 0 
L 2938 2094 
Q 2938 2591 2744 2837 
Q 2550 3084 2163 3084 
Q 1697 3084 1428 2787 
Q 1159 2491 1159 1978 
L 1159 0 
L 581 0 
L 581 3500 
L 1159 3500 
L 1159 2956 
Q 1366 3272 1645 3428 
Q 1925 3584 2291 3584 
Q 2894 3584 3203 3211 
Q 3513 2838 3513 2113 
z
" transform="scale(0.015625)"/>
       <path id="DejaVuSans-73" d="M 2834 3397 
L 2834 2853 
Q 2591 2978 2328 3040 
Q 2066 3103 1784 3103 
Q 1356 3103 1142 2972 
Q 928 2841 928 2578 
Q 928 2378 1081 2264 
Q 1234 2150 1697 2047 
L 1894 2003 
Q 2506 1872 2764 1633 
Q 3022 1394 3022 966 
Q 3022 478 2636 193 
Q 2250 -91 1575 -91 
Q 1294 -91 989 -36 
Q 684 19 347 128 
L 347 722 
Q 666 556 975 473 
Q 1284 391 1588 391 
Q 1994 391 2212 530 
Q 2431 669 2431 922 
Q 2431 1156 2273 1281 
Q 2116 1406 1581 1522 
L 1381 1569 
Q 847 1681 609 1914 
Q 372 2147 372 2553 
Q 372 3047 722 3315 
Q 1072 3584 1716 3584 
Q 2034 3584 2315 3537 
Q 2597 3491 2834 3397 
z
" transform="scale(0.015625)"/>
       <path id="DejaVuSans-69" d="M 603 3500 
L 1178 3500 
L 1178 0 
L 603 0 
L 603 3500 
z
M 603 4863 
L 1178 4863 
L 1178 4134 
L 603 4134 
L 603 4863 
z
" transform="scale(0.015625)"/>
       <path id="DejaVuSans-74" d="M 1172 4494 
L 1172 3500 
L 2356 3500 
L 2356 3053 
L 1172 3053 
L 1172 1153 
Q 1172 725 1289 603 
Q 1406 481 1766 481 
L 2356 481 
L 2356 0 
L 1766 0 
Q 1100 0 847 248 
Q 594 497 594 1153 
L 594 3053 
L 172 3053 
L 172 3500 
L 594 3500 
L 594 4494 
L 1172 4494 
z
" transform="scale(0.015625)"/>
       <path id="DejaVuSans-79" d="M 2059 -325 
Q 1816 -950 1584 -1140 
Q 1353 -1331 966 -1331 
L 506 -1331 
L 506 -850 
L 844 -850 
Q 1081 -850 1212 -737 
Q 1344 -625 1503 -206 
L 1606 56 
L 191 3500 
L 800 3500 
L 1894 763 
L 2988 3500 
L 3597 3500 
L 2059 -325 
z
" transform="scale(0.015625)"/>
      </defs>
      <use xlink:href="#DejaVuSans-44"/>
      <use xlink:href="#DejaVuSans-65" x="77.001953"/>
      <use xlink:href="#DejaVuSans-6e" x="138.525391"/>
      <use xlink:href="#DejaVuSans-73" x="201.904297"/>
      <use xlink:href="#DejaVuSans-69" x="254.003906"/>
      <use xlink:href="#DejaVuSans-74" x="281.787109"/>
      <use xlink:href="#DejaVuSans-79" x="320.996094"/>
     </g>
    </g>
   </g>
   <g id="LineCollection_1">
    <path d="M 174.077541 332.12 
L 174.077541 49.074078 
" clip-path="url(#p8c6a23431e)" style="fill: none; stroke: #ff0000; stroke-width: 1.5"/>
    <path d="M 245.375006 332.12 
L 245.375006 49.074078 
" clip-path="url(#p8c6a23431e)" style="fill: none; stroke: #ff0000; stroke-width: 1.5"/>
    <path d="M 298.755359 332.12 
L 298.755359 49.074078 
" clip-path="url(#p8c6a23431e)" style="fill: none; stroke: #ff0000; stroke-width: 1.5"/>
   </g>
   <g id="patch_3">
    <path d="M 47.72 332.12 
L 47.72 13.693338 
" style="fill: none; stroke: #000000; stroke-width: 0.8; stroke-linejoin: miter; stroke-linecap: square"/>
   </g>
   <g id="patch_4">
    <path d="M 47.72 332.12 
L 349.2 332.12 
" style="fill: none; stroke: #000000; stroke-width: 0.8; stroke-linejoin: miter; stroke-linecap: square"/>
   </g>
  </g>
 </g>
 <defs>
  <clipPath id="p8c6a23431e">
   <rect x="47.72" y="13.693338" width="301.48" height="318.426662"/>
  </clipPath>
 </defs>
</svg>
