<?xml version="1.0" encoding="utf-8" standalone="no"?>
<!DOCTYPE svg PUBLIC "-//W3C//DTD SVG 1.1//EN"
  "http://www.w3.org/Graphics/SVG/1.1/DTD/svg11.dtd">
<svg xmlns:xlink="http://www.w3.org/1999/xlink" width="360pt" height="360pt" viewBox="0 0 360 360" xmlns="http://www.w3.org/2000/svg" version="1.1">
 <metadata>
  <rdf:RDF xmlns:dc="http://purl.org/dc/elements/1.1/" xmlns:cc="http://creativecommons.org/ns#" xmlns:rdf="http://www.w3.org/1999/02/22-rdf-syntax-ns#">
   <cc:Work>
    <dc:type rdf:resource="http://purl.org/dc/dcmitype/StillImage"/>
    <dc:date>2024-08-02T11:39:38.931072</dc:date>
    <dc:format>image/svg+xml</dc:format>
    <dc:creator>
     <cc:Agent>
      <dc:title>Matplotlib v3.7.1, https://matplotlib.org/</dc:title>
     </cc:Agent>
    </dc:creator>
   </cc:Work>
  </rdf:RDF>
 </metadata>
 <defs>
  <style type="text/css">*{stroke-linejoin: round; stroke-linecap: butt}</style>
 </defs>
 <g id="figure_1">
  <g id="patch_1">
   <path d="M 0 360 
L 360 360 
L 360 0 
L 0 0 
z
" style="fill: #ffffff"/>
  </g>
  <g id="axes_1">
   <g id="patch_2">
    <path d="M 47.72 332.12 
L 349.2 332.12 
L 349.2 10.8 
L 47.72 10.8 
z
" style="fill: #ffffff"/>
   </g>
   <g id="PolyCollection_1">
    <defs>
     <path id="m791dd52da4" d="M 61.423636 -27.880051 
L 61.423636 -27.88 
L 62.800886 -27.88 
L 64.178136 -27.88 
L 65.555386 -27.88 
L 66.932636 -27.88 
L 68.309886 -27.88 
L 69.687136 -27.88 
L 71.064386 -27.88 
L 72.441635 -27.88 
L 73.818885 -27.88 
L 75.196135 -27.88 
L 76.573385 -27.88 
L 77.950635 -27.88 
L 79.327885 -27.88 
L 80.705135 -27.88 
L 82.082385 -27.88 
L 83.459635 -27.88 
L 84.836884 -27.88 
L 86.214134 -27.88 
L 87.591384 -27.88 
L 88.968634 -27.88 
L 90.345884 -27.88 
L 91.723134 -27.88 
L 93.100384 -27.88 
L 94.477634 -27.88 
L 95.854884 -27.88 
L 97.232133 -27.88 
L 98.609383 -27.88 
L 99.986633 -27.88 
L 101.363883 -27.88 
L 102.741133 -27.88 
L 104.118383 -27.88 
L 105.495633 -27.88 
L 106.872883 -27.88 
L 108.250132 -27.88 
L 109.627382 -27.88 
L 111.004632 -27.88 
L 112.381882 -27.88 
L 113.759132 -27.88 
L 115.136382 -27.88 
L 116.513632 -27.88 
L 117.890882 -27.88 
L 119.268132 -27.88 
L 120.645381 -27.88 
L 122.022631 -27.88 
L 123.399881 -27.88 
L 124.777131 -27.88 
L 126.154381 -27.88 
L 127.531631 -27.88 
L 128.908881 -27.88 
L 130.286131 -27.88 
L 131.663381 -27.88 
L 133.04063 -27.88 
L 134.41788 -27.88 
L 135.79513 -27.88 
L 137.17238 -27.88 
L 138.54963 -27.88 
L 139.92688 -27.88 
L 141.30413 -27.88 
L 142.68138 -27.88 
L 144.05863 -27.88 
L 145.435879 -27.88 
L 146.813129 -27.88 
L 148.190379 -27.88 
L 149.567629 -27.88 
L 150.944879 -27.88 
L 152.322129 -27.88 
L 153.699379 -27.88 
L 155.076629 -27.88 
L 156.453878 -27.88 
L 157.831128 -27.88 
L 159.208378 -27.88 
L 160.585628 -27.88 
L 161.962878 -27.88 
L 163.340128 -27.88 
L 164.717378 -27.88 
L 166.094628 -27.88 
L 167.471878 -27.88 
L 168.849127 -27.88 
L 170.226377 -27.88 
L 171.603627 -27.88 
L 172.980877 -27.88 
L 174.358127 -27.88 
L 175.735377 -27.88 
L 177.112627 -27.88 
L 178.489877 -27.88 
L 179.867127 -27.88 
L 181.244376 -27.88 
L 182.621626 -27.88 
L 183.998876 -27.88 
L 185.376126 -27.88 
L 186.753376 -27.88 
L 188.130626 -27.88 
L 189.507876 -27.88 
L 190.885126 -27.88 
L 192.262376 -27.88 
L 193.639625 -27.88 
L 195.016875 -27.88 
L 196.394125 -27.88 
L 197.771375 -27.88 
L 199.148625 -27.88 
L 200.525875 -27.88 
L 201.903125 -27.88 
L 203.280375 -27.88 
L 204.657624 -27.88 
L 206.034874 -27.88 
L 207.412124 -27.88 
L 208.789374 -27.88 
L 210.166624 -27.88 
L 211.543874 -27.88 
L 212.921124 -27.88 
L 214.298374 -27.88 
L 215.675624 -27.88 
L 217.052873 -27.88 
L 218.430123 -27.88 
L 219.807373 -27.88 
L 221.184623 -27.88 
L 222.561873 -27.88 
L 223.939123 -27.88 
L 225.316373 -27.88 
L 226.693623 -27.88 
L 228.070873 -27.88 
L 229.448122 -27.88 
L 230.825372 -27.88 
L 232.202622 -27.88 
L 233.579872 -27.88 
L 234.957122 -27.88 
L 236.334372 -27.88 
L 237.711622 -27.88 
L 239.088872 -27.88 
L 240.466122 -27.88 
L 241.843371 -27.88 
L 243.220621 -27.88 
L 244.597871 -27.88 
L 245.975121 -27.88 
L 247.352371 -27.88 
L 248.729621 -27.88 
L 250.106871 -27.88 
L 251.484121 -27.88 
L 252.86137 -27.88 
L 254.23862 -27.88 
L 255.61587 -27.88 
L 256.99312 -27.88 
L 258.37037 -27.88 
L 259.74762 -27.88 
L 261.12487 -27.88 
L 262.50212 -27.88 
L 263.87937 -27.88 
L 265.256619 -27.88 
L 266.633869 -27.88 
L 268.011119 -27.88 
L 269.388369 -27.88 
L 270.765619 -27.88 
L 272.142869 -27.88 
L 273.520119 -27.88 
L 274.897369 -27.88 
L 276.274619 -27.88 
L 277.651868 -27.88 
L 279.029118 -27.88 
L 280.406368 -27.88 
L 281.783618 -27.88 
L 283.160868 -27.88 
L 284.538118 -27.88 
L 285.915368 -27.88 
L 287.292618 -27.88 
L 288.669868 -27.88 
L 290.047117 -27.88 
L 291.424367 -27.88 
L 292.801617 -27.88 
L 294.178867 -27.88 
L 295.556117 -27.88 
L 296.933367 -27.88 
L 298.310617 -27.88 
L 299.687867 -27.88 
L 301.065116 -27.88 
L 302.442366 -27.88 
L 303.819616 -27.88 
L 305.196866 -27.88 
L 306.574116 -27.88 
L 307.951366 -27.88 
L 309.328616 -27.88 
L 310.705866 -27.88 
L 312.083116 -27.88 
L 313.460365 -27.88 
L 314.837615 -27.88 
L 316.214865 -27.88 
L 317.592115 -27.88 
L 318.969365 -27.88 
L 320.346615 -27.88 
L 321.723865 -27.88 
L 323.101115 -27.88 
L 324.478365 -27.88 
L 325.855614 -27.88 
L 327.232864 -27.88 
L 328.610114 -27.88 
L 329.987364 -27.88 
L 331.364614 -27.88 
L 332.741864 -27.88 
L 334.119114 -27.88 
L 335.496364 -27.88 
L 335.496364 -27.940052 
L 335.496364 -27.940052 
L 334.119114 -28.239387 
L 332.741864 -29.509671 
L 331.364614 -33.545912 
L 329.987364 -43.22655 
L 328.610114 -60.9664 
L 327.232864 -86.283683 
L 325.855614 -115.310074 
L 324.478365 -143.382669 
L 323.101115 -167.858278 
L 321.723865 -188.452109 
L 320.346615 -205.98799 
L 318.969365 -221.392593 
L 317.592115 -235.183402 
L 316.214865 -247.300373 
L 314.837615 -257.482796 
L 313.460365 -265.845353 
L 312.083116 -272.948743 
L 310.705866 -279.356362 
L 309.328616 -285.262842 
L 307.951366 -290.527125 
L 306.574116 -294.952281 
L 305.196866 -298.500135 
L 303.819616 -301.293019 
L 302.442366 -303.492341 
L 301.065116 -305.240389 
L 299.687867 -306.694211 
L 298.310617 -307.991997 
L 296.933367 -309.103813 
L 295.556117 -309.779019 
L 294.178867 -309.752567 
L 292.801617 -309.001732 
L 291.424367 -307.775574 
L 290.047117 -306.408915 
L 288.669868 -305.048796 
L 287.292618 -303.542947 
L 285.915368 -301.728639 
L 284.538118 -299.724187 
L 283.160868 -297.702546 
L 281.783618 -295.534104 
L 280.406368 -292.927896 
L 279.029118 -289.853136 
L 277.651868 -286.588342 
L 276.274619 -283.357957 
L 274.897369 -280.121643 
L 273.520119 -276.74816 
L 272.142869 -273.244705 
L 270.765619 -269.769815 
L 269.388369 -266.482655 
L 268.011119 -263.402864 
L 266.633869 -260.371059 
L 265.256619 -257.085868 
L 263.87937 -253.243688 
L 262.50212 -248.808274 
L 261.12487 -244.125192 
L 259.74762 -239.60891 
L 258.37037 -235.353261 
L 256.99312 -231.174464 
L 255.61587 -226.939658 
L 254.23862 -222.690048 
L 252.86137 -218.499925 
L 251.484121 -214.383174 
L 250.106871 -210.341429 
L 248.729621 -206.381589 
L 247.352371 -202.487476 
L 245.975121 -198.634325 
L 244.597871 -194.7679 
L 243.220621 -190.78135 
L 241.843371 -186.654944 
L 240.466122 -182.556218 
L 239.088872 -178.646817 
L 237.711622 -174.911817 
L 236.334372 -171.295712 
L 234.957122 -167.822074 
L 233.579872 -164.462493 
L 232.202622 -161.049119 
L 230.825372 -157.429379 
L 229.448122 -153.618433 
L 228.070873 -149.739073 
L 226.693623 -145.880868 
L 225.316373 -142.079847 
L 223.939123 -138.395084 
L 222.561873 -134.909495 
L 221.184623 -131.638755 
L 219.807373 -128.517498 
L 218.430123 -125.492769 
L 217.052873 -122.549043 
L 215.675624 -119.6339 
L 214.298374 -116.651623 
L 212.921124 -113.539236 
L 211.543874 -110.32058 
L 210.166624 -107.119845 
L 208.789374 -104.100622 
L 207.412124 -101.340961 
L 206.034874 -98.78799 
L 204.657624 -96.341734 
L 203.280375 -93.925638 
L 201.903125 -91.457792 
L 200.525875 -88.850712 
L 199.148625 -86.12654 
L 197.771375 -83.48236 
L 196.394125 -81.150723 
L 195.016875 -79.193594 
L 193.639625 -77.47112 
L 192.262376 -75.780951 
L 190.885126 -73.974251 
L 189.507876 -71.9862 
L 188.130626 -69.862608 
L 186.753376 -67.765193 
L 185.376126 -65.864944 
L 183.998876 -64.192742 
L 182.621626 -62.631681 
L 181.244376 -61.059759 
L 179.867127 -59.45507 
L 178.489877 -57.867941 
L 177.112627 -56.343908 
L 175.735377 -54.890815 
L 174.358127 -53.501365 
L 172.980877 -52.182008 
L 171.603627 -50.944221 
L 170.226377 -49.783019 
L 168.849127 -48.677921 
L 167.471878 -47.604762 
L 166.094628 -46.550473 
L 164.717378 -45.528626 
L 163.340128 -44.572714 
L 161.962878 -43.69944 
L 160.585628 -42.878202 
L 159.208378 -42.046545 
L 157.831128 -41.161984 
L 156.453878 -40.242864 
L 155.076629 -39.352378 
L 153.699379 -38.537641 
L 152.322129 -37.802485 
L 150.944879 -37.137094 
L 149.567629 -36.534256 
L 148.190379 -35.970947 
L 146.813129 -35.417409 
L 145.435879 -34.875483 
L 144.05863 -34.373285 
L 142.68138 -33.922592 
L 141.30413 -33.510389 
L 139.92688 -33.123402 
L 138.54963 -32.760129 
L 137.17238 -32.423037 
L 135.79513 -32.106791 
L 134.41788 -31.794894 
L 133.04063 -31.471616 
L 131.663381 -31.139639 
L 130.286131 -30.821658 
L 128.908881 -30.541791 
L 127.531631 -30.306322 
L 126.154381 -30.103149 
L 124.777131 -29.917304 
L 123.399881 -29.742911 
L 122.022631 -29.584095 
L 120.645381 -29.44843 
L 119.268132 -29.333269 
L 117.890882 -29.219468 
L 116.513632 -29.088815 
L 115.136382 -28.944007 
L 113.759132 -28.803263 
L 112.381882 -28.681887 
L 111.004632 -28.583477 
L 109.627382 -28.501086 
L 108.250132 -28.425033 
L 106.872883 -28.353664 
L 105.495633 -28.292717 
L 104.118383 -28.24343 
L 102.741133 -28.201096 
L 101.363883 -28.165143 
L 99.986633 -28.138189 
L 98.609383 -28.115997 
L 97.232133 -28.089991 
L 95.854884 -28.058532 
L 94.477634 -28.028029 
L 93.100384 -28.004278 
L 91.723134 -27.986764 
L 90.345884 -27.970849 
L 88.968634 -27.953386 
L 87.591384 -27.935336 
L 86.214134 -27.919841 
L 84.836884 -27.909415 
L 83.459635 -27.904362 
L 82.082385 -27.902352 
L 80.705135 -27.900262 
L 79.327885 -27.897078 
L 77.950635 -27.893888 
L 76.573385 -27.891345 
L 75.196135 -27.88909 
L 73.818885 -27.887334 
L 72.441635 -27.886924 
L 71.064386 -27.88769 
L 69.687136 -27.88811 
L 68.309886 -27.886969 
L 66.932636 -27.884619 
L 65.555386 -27.882318 
L 64.178136 -27.880872 
L 62.800886 -27.880244 
L 61.423636 -27.880051 
z
" style="stroke: #1f77b4"/>
    </defs>
    <g clip-path="url(#p646d883890)">
     <use xlink:href="#m791dd52da4" x="0" y="360" style="fill: #1f77b4; fill-opacity: 0.25; stroke: #1f77b4"/>
    </g>
   </g>
   <g id="matplotlib.axis_1">
    <g id="xtick_1">
     <g id="line2d_1">
      <defs>
       <path id="mcaee8d9ed9" d="M 0 0 
L 0 3.5 
" style="stroke: #000000; stroke-width: 0.8"/>
      </defs>
      <g>
       <use xlink:href="#mcaee8d9ed9" x="50.214919" y="332.12" style="stroke: #000000; stroke-width: 0.8"/>
      </g>
     </g>
     <g id="text_1">
      <!-- 2.2 -->
      <g transform="translate(42.263357 346.718437) scale(0.1 -0.1)">
       <defs>
        <path id="DejaVuSans-32" d="M 1228 531 
L 3431 531 
L 3431 0 
L 469 0 
L 469 531 
Q 828 903 1448 1529 
Q 2069 2156 2228 2338 
Q 2531 2678 2651 2914 
Q 2772 3150 2772 3378 
Q 2772 3750 2511 3984 
Q 2250 4219 1831 4219 
Q 1534 4219 1204 4116 
Q 875 4013 500 3803 
L 500 4441 
Q 881 4594 1212 4672 
Q 1544 4750 1819 4750 
Q 2544 4750 2975 4387 
Q 3406 4025 3406 3419 
Q 3406 3131 3298 2873 
Q 3191 2616 2906 2266 
Q 2828 2175 2409 1742 
Q 1991 1309 1228 531 
z
" transform="scale(0.015625)"/>
        <path id="DejaVuSans-2e" d="M 684 794 
L 1344 794 
L 1344 0 
L 684 0 
L 684 794 
z
" transform="scale(0.015625)"/>
       </defs>
       <use xlink:href="#DejaVuSans-32"/>
       <use xlink:href="#DejaVuSans-2e" x="63.623047"/>
       <use xlink:href="#DejaVuSans-32" x="95.410156"/>
      </g>
     </g>
    </g>
    <g id="xtick_2">
     <g id="line2d_2">
      <g>
       <use xlink:href="#mcaee8d9ed9" x="86.193693" y="332.12" style="stroke: #000000; stroke-width: 0.8"/>
      </g>
     </g>
     <g id="text_2">
      <!-- 2.3 -->
      <g transform="translate(78.242131 346.718437) scale(0.1 -0.1)">
       <defs>
        <path id="DejaVuSans-33" d="M 2597 2516 
Q 3050 2419 3304 2112 
Q 3559 1806 3559 1356 
Q 3559 666 3084 287 
Q 2609 -91 1734 -91 
Q 1441 -91 1130 -33 
Q 819 25 488 141 
L 488 750 
Q 750 597 1062 519 
Q 1375 441 1716 441 
Q 2309 441 2620 675 
Q 2931 909 2931 1356 
Q 2931 1769 2642 2001 
Q 2353 2234 1838 2234 
L 1294 2234 
L 1294 2753 
L 1863 2753 
Q 2328 2753 2575 2939 
Q 2822 3125 2822 3475 
Q 2822 3834 2567 4026 
Q 2313 4219 1838 4219 
Q 1578 4219 1281 4162 
Q 984 4106 628 3988 
L 628 4550 
Q 988 4650 1302 4700 
Q 1616 4750 1894 4750 
Q 2613 4750 3031 4423 
Q 3450 4097 3450 3541 
Q 3450 3153 3228 2886 
Q 3006 2619 2597 2516 
z
" transform="scale(0.015625)"/>
       </defs>
       <use xlink:href="#DejaVuSans-32"/>
       <use xlink:href="#DejaVuSans-2e" x="63.623047"/>
       <use xlink:href="#DejaVuSans-33" x="95.410156"/>
      </g>
     </g>
    </g>
    <g id="xtick_3">
     <g id="line2d_3">
      <g>
       <use xlink:href="#mcaee8d9ed9" x="122.172467" y="332.12" style="stroke: #000000; stroke-width: 0.8"/>
      </g>
     </g>
     <g id="text_3">
      <!-- 2.4 -->
      <g transform="translate(114.220905 346.718437) scale(0.1 -0.1)">
       <defs>
        <path id="DejaVuSans-34" d="M 2419 4116 
L 825 1625 
L 2419 1625 
L 2419 4116 
z
M 2253 4666 
L 3047 4666 
L 3047 1625 
L 3713 1625 
L 3713 1100 
L 3047 1100 
L 3047 0 
L 2419 0 
L 2419 1100 
L 313 1100 
L 313 1709 
L 2253 4666 
z
" transform="scale(0.015625)"/>
       </defs>
       <use xlink:href="#DejaVuSans-32"/>
       <use xlink:href="#DejaVuSans-2e" x="63.623047"/>
       <use xlink:href="#DejaVuSans-34" x="95.410156"/>
      </g>
     </g>
    </g>
    <g id="xtick_4">
     <g id="line2d_4">
      <g>
       <use xlink:href="#mcaee8d9ed9" x="158.151242" y="332.12" style="stroke: #000000; stroke-width: 0.8"/>
      </g>
     </g>
     <g id="text_4">
      <!-- 2.5 -->
      <g transform="translate(150.199679 346.718437) scale(0.1 -0.1)">
       <defs>
        <path id="DejaVuSans-35" d="M 691 4666 
L 3169 4666 
L 3169 4134 
L 1269 4134 
L 1269 2991 
Q 1406 3038 1543 3061 
Q 1681 3084 1819 3084 
Q 2600 3084 3056 2656 
Q 3513 2228 3513 1497 
Q 3513 744 3044 326 
Q 2575 -91 1722 -91 
Q 1428 -91 1123 -41 
Q 819 9 494 109 
L 494 744 
Q 775 591 1075 516 
Q 1375 441 1709 441 
Q 2250 441 2565 725 
Q 2881 1009 2881 1497 
Q 2881 1984 2565 2268 
Q 2250 2553 1709 2553 
Q 1456 2553 1204 2497 
Q 953 2441 691 2322 
L 691 4666 
z
" transform="scale(0.015625)"/>
       </defs>
       <use xlink:href="#DejaVuSans-32"/>
       <use xlink:href="#DejaVuSans-2e" x="63.623047"/>
       <use xlink:href="#DejaVuSans-35" x="95.410156"/>
      </g>
     </g>
    </g>
    <g id="xtick_5">
     <g id="line2d_5">
      <g>
       <use xlink:href="#mcaee8d9ed9" x="194.130016" y="332.12" style="stroke: #000000; stroke-width: 0.8"/>
      </g>
     </g>
     <g id="text_5">
      <!-- 2.6 -->
      <g transform="translate(186.178453 346.718437) scale(0.1 -0.1)">
       <defs>
        <path id="DejaVuSans-36" d="M 2113 2584 
Q 1688 2584 1439 2293 
Q 1191 2003 1191 1497 
Q 1191 994 1439 701 
Q 1688 409 2113 409 
Q 2538 409 2786 701 
Q 3034 994 3034 1497 
Q 3034 2003 2786 2293 
Q 2538 2584 2113 2584 
z
M 3366 4563 
L 3366 3988 
Q 3128 4100 2886 4159 
Q 2644 4219 2406 4219 
Q 1781 4219 1451 3797 
Q 1122 3375 1075 2522 
Q 1259 2794 1537 2939 
Q 1816 3084 2150 3084 
Q 2853 3084 3261 2657 
Q 3669 2231 3669 1497 
Q 3669 778 3244 343 
Q 2819 -91 2113 -91 
Q 1303 -91 875 529 
Q 447 1150 447 2328 
Q 447 3434 972 4092 
Q 1497 4750 2381 4750 
Q 2619 4750 2861 4703 
Q 3103 4656 3366 4563 
z
" transform="scale(0.015625)"/>
       </defs>
       <use xlink:href="#DejaVuSans-32"/>
       <use xlink:href="#DejaVuSans-2e" x="63.623047"/>
       <use xlink:href="#DejaVuSans-36" x="95.410156"/>
      </g>
     </g>
    </g>
    <g id="xtick_6">
     <g id="line2d_6">
      <g>
       <use xlink:href="#mcaee8d9ed9" x="230.10879" y="332.12" style="stroke: #000000; stroke-width: 0.8"/>
      </g>
     </g>
     <g id="text_6">
      <!-- 2.7 -->
      <g transform="translate(222.157227 346.718437) scale(0.1 -0.1)">
       <defs>
        <path id="DejaVuSans-37" d="M 525 4666 
L 3525 4666 
L 3525 4397 
L 1831 0 
L 1172 0 
L 2766 4134 
L 525 4134 
L 525 4666 
z
" transform="scale(0.015625)"/>
       </defs>
       <use xlink:href="#DejaVuSans-32"/>
       <use xlink:href="#DejaVuSans-2e" x="63.623047"/>
       <use xlink:href="#DejaVuSans-37" x="95.410156"/>
      </g>
     </g>
    </g>
    <g id="xtick_7">
     <g id="line2d_7">
      <g>
       <use xlink:href="#mcaee8d9ed9" x="266.087564" y="332.12" style="stroke: #000000; stroke-width: 0.8"/>
      </g>
     </g>
     <g id="text_7">
      <!-- 2.8 -->
      <g transform="translate(258.136001 346.718437) scale(0.1 -0.1)">
       <defs>
        <path id="DejaVuSans-38" d="M 2034 2216 
Q 1584 2216 1326 1975 
Q 1069 1734 1069 1313 
Q 1069 891 1326 650 
Q 1584 409 2034 409 
Q 2484 409 2743 651 
Q 3003 894 3003 1313 
Q 3003 1734 2745 1975 
Q 2488 2216 2034 2216 
z
M 1403 2484 
Q 997 2584 770 2862 
Q 544 3141 544 3541 
Q 544 4100 942 4425 
Q 1341 4750 2034 4750 
Q 2731 4750 3128 4425 
Q 3525 4100 3525 3541 
Q 3525 3141 3298 2862 
Q 3072 2584 2669 2484 
Q 3125 2378 3379 2068 
Q 3634 1759 3634 1313 
Q 3634 634 3220 271 
Q 2806 -91 2034 -91 
Q 1263 -91 848 271 
Q 434 634 434 1313 
Q 434 1759 690 2068 
Q 947 2378 1403 2484 
z
M 1172 3481 
Q 1172 3119 1398 2916 
Q 1625 2713 2034 2713 
Q 2441 2713 2670 2916 
Q 2900 3119 2900 3481 
Q 2900 3844 2670 4047 
Q 2441 4250 2034 4250 
Q 1625 4250 1398 4047 
Q 1172 3844 1172 3481 
z
" transform="scale(0.015625)"/>
       </defs>
       <use xlink:href="#DejaVuSans-32"/>
       <use xlink:href="#DejaVuSans-2e" x="63.623047"/>
       <use xlink:href="#DejaVuSans-38" x="95.410156"/>
      </g>
     </g>
    </g>
    <g id="xtick_8">
     <g id="line2d_8">
      <g>
       <use xlink:href="#mcaee8d9ed9" x="302.066338" y="332.12" style="stroke: #000000; stroke-width: 0.8"/>
      </g>
     </g>
     <g id="text_8">
      <!-- 2.9 -->
      <g transform="translate(294.114775 346.718437) scale(0.1 -0.1)">
       <defs>
        <path id="DejaVuSans-39" d="M 703 97 
L 703 672 
Q 941 559 1184 500 
Q 1428 441 1663 441 
Q 2288 441 2617 861 
Q 2947 1281 2994 2138 
Q 2813 1869 2534 1725 
Q 2256 1581 1919 1581 
Q 1219 1581 811 2004 
Q 403 2428 403 3163 
Q 403 3881 828 4315 
Q 1253 4750 1959 4750 
Q 2769 4750 3195 4129 
Q 3622 3509 3622 2328 
Q 3622 1225 3098 567 
Q 2575 -91 1691 -91 
Q 1453 -91 1209 -44 
Q 966 3 703 97 
z
M 1959 2075 
Q 2384 2075 2632 2365 
Q 2881 2656 2881 3163 
Q 2881 3666 2632 3958 
Q 2384 4250 1959 4250 
Q 1534 4250 1286 3958 
Q 1038 3666 1038 3163 
Q 1038 2656 1286 2365 
Q 1534 2075 1959 2075 
z
" transform="scale(0.015625)"/>
       </defs>
       <use xlink:href="#DejaVuSans-32"/>
       <use xlink:href="#DejaVuSans-2e" x="63.623047"/>
       <use xlink:href="#DejaVuSans-39" x="95.410156"/>
      </g>
     </g>
    </g>
    <g id="xtick_9">
     <g id="line2d_9">
      <g>
       <use xlink:href="#mcaee8d9ed9" x="338.045112" y="332.12" style="stroke: #000000; stroke-width: 0.8"/>
      </g>
     </g>
     <g id="text_9">
      <!-- 3.0 -->
      <g transform="translate(330.09355 346.718437) scale(0.1 -0.1)">
       <defs>
        <path id="DejaVuSans-30" d="M 2034 4250 
Q 1547 4250 1301 3770 
Q 1056 3291 1056 2328 
Q 1056 1369 1301 889 
Q 1547 409 2034 409 
Q 2525 409 2770 889 
Q 3016 1369 3016 2328 
Q 3016 3291 2770 3770 
Q 2525 4250 2034 4250 
z
M 2034 4750 
Q 2819 4750 3233 4129 
Q 3647 3509 3647 2328 
Q 3647 1150 3233 529 
Q 2819 -91 2034 -91 
Q 1250 -91 836 529 
Q 422 1150 422 2328 
Q 422 3509 836 4129 
Q 1250 4750 2034 4750 
z
" transform="scale(0.015625)"/>
       </defs>
       <use xlink:href="#DejaVuSans-33"/>
       <use xlink:href="#DejaVuSans-2e" x="63.623047"/>
       <use xlink:href="#DejaVuSans-30" x="95.410156"/>
      </g>
     </g>
    </g>
   </g>
   <g id="matplotlib.axis_2">
    <g id="ytick_1">
     <g id="line2d_10">
      <defs>
       <path id="me7af680412" d="M 0 0 
L -3.5 0 
" style="stroke: #000000; stroke-width: 0.8"/>
      </defs>
      <g>
       <use xlink:href="#me7af680412" x="47.72" y="332.12" style="stroke: #000000; stroke-width: 0.8"/>
      </g>
     </g>
     <g id="text_10">
      <!-- 0.0 -->
      <g transform="translate(24.816875 335.919219) scale(0.1 -0.1)">
       <use xlink:href="#DejaVuSans-30"/>
       <use xlink:href="#DejaVuSans-2e" x="63.623047"/>
       <use xlink:href="#DejaVuSans-30" x="95.410156"/>
      </g>
     </g>
    </g>
    <g id="ytick_2">
     <g id="line2d_11">
      <g>
       <use xlink:href="#me7af680412" x="47.72" y="296.417778" style="stroke: #000000; stroke-width: 0.8"/>
      </g>
     </g>
     <g id="text_11">
      <!-- 0.5 -->
      <g transform="translate(24.816875 300.216997) scale(0.1 -0.1)">
       <use xlink:href="#DejaVuSans-30"/>
       <use xlink:href="#DejaVuSans-2e" x="63.623047"/>
       <use xlink:href="#DejaVuSans-35" x="95.410156"/>
      </g>
     </g>
    </g>
    <g id="ytick_3">
     <g id="line2d_12">
      <g>
       <use xlink:href="#me7af680412" x="47.72" y="260.715556" style="stroke: #000000; stroke-width: 0.8"/>
      </g>
     </g>
     <g id="text_12">
      <!-- 1.0 -->
      <g transform="translate(24.816875 264.514774) scale(0.1 -0.1)">
       <defs>
        <path id="DejaVuSans-31" d="M 794 531 
L 1825 531 
L 1825 4091 
L 703 3866 
L 703 4441 
L 1819 4666 
L 2450 4666 
L 2450 531 
L 3481 531 
L 3481 0 
L 794 0 
L 794 531 
z
" transform="scale(0.015625)"/>
       </defs>
       <use xlink:href="#DejaVuSans-31"/>
       <use xlink:href="#DejaVuSans-2e" x="63.623047"/>
       <use xlink:href="#DejaVuSans-30" x="95.410156"/>
      </g>
     </g>
    </g>
    <g id="ytick_4">
     <g id="line2d_13">
      <g>
       <use xlink:href="#me7af680412" x="47.72" y="225.013333" style="stroke: #000000; stroke-width: 0.8"/>
      </g>
     </g>
     <g id="text_13">
      <!-- 1.5 -->
      <g transform="translate(24.816875 228.812552) scale(0.1 -0.1)">
       <use xlink:href="#DejaVuSans-31"/>
       <use xlink:href="#DejaVuSans-2e" x="63.623047"/>
       <use xlink:href="#DejaVuSans-35" x="95.410156"/>
      </g>
     </g>
    </g>
    <g id="ytick_5">
     <g id="line2d_14">
      <g>
       <use xlink:href="#me7af680412" x="47.72" y="189.311111" style="stroke: #000000; stroke-width: 0.8"/>
      </g>
     </g>
     <g id="text_14">
      <!-- 2.0 -->
      <g transform="translate(24.816875 193.11033) scale(0.1 -0.1)">
       <use xlink:href="#DejaVuSans-32"/>
       <use xlink:href="#DejaVuSans-2e" x="63.623047"/>
       <use xlink:href="#DejaVuSans-30" x="95.410156"/>
      </g>
     </g>
    </g>
    <g id="ytick_6">
     <g id="line2d_15">
      <g>
       <use xlink:href="#me7af680412" x="47.72" y="153.608889" style="stroke: #000000; stroke-width: 0.8"/>
      </g>
     </g>
     <g id="text_15">
      <!-- 2.5 -->
      <g transform="translate(24.816875 157.408108) scale(0.1 -0.1)">
       <use xlink:href="#DejaVuSans-32"/>
       <use xlink:href="#DejaVuSans-2e" x="63.623047"/>
       <use xlink:href="#DejaVuSans-35" x="95.410156"/>
      </g>
     </g>
    </g>
    <g id="ytick_7">
     <g id="line2d_16">
      <g>
       <use xlink:href="#me7af680412" x="47.72" y="117.906667" style="stroke: #000000; stroke-width: 0.8"/>
      </g>
     </g>
     <g id="text_16">
      <!-- 3.0 -->
      <g transform="translate(24.816875 121.705885) scale(0.1 -0.1)">
       <use xlink:href="#DejaVuSans-33"/>
       <use xlink:href="#DejaVuSans-2e" x="63.623047"/>
       <use xlink:href="#DejaVuSans-30" x="95.410156"/>
      </g>
     </g>
    </g>
    <g id="ytick_8">
     <g id="line2d_17">
      <g>
       <use xlink:href="#me7af680412" x="47.72" y="82.204444" style="stroke: #000000; stroke-width: 0.8"/>
      </g>
     </g>
     <g id="text_17">
      <!-- 3.5 -->
      <g transform="translate(24.816875 86.003663) scale(0.1 -0.1)">
       <use xlink:href="#DejaVuSans-33"/>
       <use xlink:href="#DejaVuSans-2e" x="63.623047"/>
       <use xlink:href="#DejaVuSans-35" x="95.410156"/>
      </g>
     </g>
    </g>
    <g id="ytick_9">
     <g id="line2d_18">
      <g>
       <use xlink:href="#me7af680412" x="47.72" y="46.502222" style="stroke: #000000; stroke-width: 0.8"/>
      </g>
     </g>
     <g id="text_18">
      <!-- 4.0 -->
      <g transform="translate(24.816875 50.301441) scale(0.1 -0.1)">
       <use xlink:href="#DejaVuSans-34"/>
       <use xlink:href="#DejaVuSans-2e" x="63.623047"/>
       <use xlink:href="#DejaVuSans-30" x="95.410156"/>
      </g>
     </g>
    </g>
    <g id="ytick_10">
     <g id="line2d_19">
      <g>
       <use xlink:href="#me7af680412" x="47.72" y="10.8" style="stroke: #000000; stroke-width: 0.8"/>
      </g>
     </g>
     <g id="text_19">
      <!-- 4.5 -->
      <g transform="translate(24.816875 14.599219) scale(0.1 -0.1)">
       <use xlink:href="#DejaVuSans-34"/>
       <use xlink:href="#DejaVuSans-2e" x="63.623047"/>
       <use xlink:href="#DejaVuSans-35" x="95.410156"/>
      </g>
     </g>
    </g>
    <g id="text_20">
     <!-- Density -->
     <g transform="translate(18.737188 190.468594) rotate(-90) scale(0.1 -0.1)">
      <defs>
       <path id="DejaVuSans-44" d="M 1259 4147 
L 1259 519 
L 2022 519 
Q 2988 519 3436 956 
Q 3884 1394 3884 2338 
Q 3884 3275 3436 3711 
Q 2988 4147 2022 4147 
L 1259 4147 
z
M 628 4666 
L 1925 4666 
Q 3281 4666 3915 4102 
Q 4550 3538 4550 2338 
Q 4550 1131 3912 565 
Q 3275 0 1925 0 
L 628 0 
L 628 4666 
z
" transform="scale(0.015625)"/>
       <path id="DejaVuSans-65" d="M 3597 1894 
L 3597 1613 
L 953 1613 
Q 991 1019 1311 708 
Q 1631 397 2203 397 
Q 2534 397 2845 478 
Q 3156 559 3463 722 
L 3463 178 
Q 3153 47 2828 -22 
Q 2503 -91 2169 -91 
Q 1331 -91 842 396 
Q 353 884 353 1716 
Q 353 2575 817 3079 
Q 1281 3584 2069 3584 
Q 2775 3584 3186 3129 
Q 3597 2675 3597 1894 
z
M 3022 2063 
Q 3016 2534 2758 2815 
Q 2500 3097 2075 3097 
Q 1594 3097 1305 2825 
Q 1016 2553 972 2059 
L 3022 2063 
z
" transform="scale(0.015625)"/>
       <path id="DejaVuSans-6e" d="M 3513 2113 
L 3513 0 
L 2938 0 
L 2938 2094 
Q 2938 2591 2744 2837 
Q 2550 3084 2163 3084 
Q 1697 3084 1428 2787 
Q 1159 2491 1159 1978 
L 1159 0 
L 581 0 
L 581 3500 
L 1159 3500 
L 1159 2956 
Q 1366 3272 1645 3428 
Q 1925 3584 2291 3584 
Q 2894 3584 3203 3211 
Q 3513 2838 3513 2113 
z
" transform="scale(0.015625)"/>
       <path id="DejaVuSans-73" d="M 2834 3397 
L 2834 2853 
Q 2591 2978 2328 3040 
Q 2066 3103 1784 3103 
Q 1356 3103 1142 2972 
Q 928 2841 928 2578 
Q 928 2378 1081 2264 
Q 1234 2150 1697 2047 
L 1894 2003 
Q 2506 1872 2764 1633 
Q 3022 1394 3022 966 
Q 3022 478 2636 193 
Q 2250 -91 1575 -91 
Q 1294 -91 989 -36 
Q 684 19 347 128 
L 347 722 
Q 666 556 975 473 
Q 1284 391 1588 391 
Q 1994 391 2212 530 
Q 2431 669 2431 922 
Q 2431 1156 2273 1281 
Q 2116 1406 1581 1522 
L 1381 1569 
Q 847 1681 609 1914 
Q 372 2147 372 2553 
Q 372 3047 722 3315 
Q 1072 3584 1716 3584 
Q 2034 3584 2315 3537 
Q 2597 3491 2834 3397 
z
" transform="scale(0.015625)"/>
       <path id="DejaVuSans-69" d="M 603 3500 
L 1178 3500 
L 1178 0 
L 603 0 
L 603 3500 
z
M 603 4863 
L 1178 4863 
L 1178 4134 
L 603 4134 
L 603 4863 
z
" transform="scale(0.015625)"/>
       <path id="DejaVuSans-74" d="M 1172 4494 
L 1172 3500 
L 2356 3500 
L 2356 3053 
L 1172 3053 
L 1172 1153 
Q 1172 725 1289 603 
Q 1406 481 1766 481 
L 2356 481 
L 2356 0 
L 1766 0 
Q 1100 0 847 248 
Q 594 497 594 1153 
L 594 3053 
L 172 3053 
L 172 3500 
L 594 3500 
L 594 4494 
L 1172 4494 
z
" transform="scale(0.015625)"/>
       <path id="DejaVuSans-79" d="M 2059 -325 
Q 1816 -950 1584 -1140 
Q 1353 -1331 966 -1331 
L 506 -1331 
L 506 -850 
L 844 -850 
Q 1081 -850 1212 -737 
Q 1344 -625 1503 -206 
L 1606 56 
L 191 3500 
L 800 3500 
L 1894 763 
L 2988 3500 
L 3597 3500 
L 2059 -325 
z
" transform="scale(0.015625)"/>
      </defs>
      <use xlink:href="#DejaVuSans-44"/>
      <use xlink:href="#DejaVuSans-65" x="77.001953"/>
      <use xlink:href="#DejaVuSans-6e" x="138.525391"/>
      <use xlink:href="#DejaVuSans-73" x="201.904297"/>
      <use xlink:href="#DejaVuSans-69" x="254.003906"/>
      <use xlink:href="#DejaVuSans-74" x="281.787109"/>
      <use xlink:href="#DejaVuSans-79" x="320.996094"/>
     </g>
    </g>
   </g>
   <g id="LineCollection_1">
    <path d="M 194.238525 332.12 
L 194.238525 46.502222 
" clip-path="url(#p646d883890)" style="fill: none; stroke: #ff0000; stroke-width: 1.5"/>
    <path d="M 274.842839 332.12 
L 274.842839 46.502222 
" clip-path="url(#p646d883890)" style="fill: none; stroke: #ff0000; stroke-width: 1.5"/>
    <path d="M 318.526397 332.12 
L 318.526397 46.502222 
" clip-path="url(#p646d883890)" style="fill: none; stroke: #ff0000; stroke-width: 1.5"/>
   </g>
   <g id="patch_3">
    <path d="M 47.72 332.12 
L 47.72 10.8 
" style="fill: none; stroke: #000000; stroke-width: 0.8; stroke-linejoin: miter; stroke-linecap: square"/>
   </g>
   <g id="patch_4">
    <path d="M 47.72 332.12 
L 349.2 332.12 
" style="fill: none; stroke: #000000; stroke-width: 0.8; stroke-linejoin: miter; stroke-linecap: square"/>
   </g>
  </g>
 </g>
 <defs>
  <clipPath id="p646d883890">
   <rect x="47.72" y="10.8" width="301.48" height="321.32"/>
  </clipPath>
 </defs>
</svg>
