<?xml version="1.0" encoding="utf-8" standalone="no"?>
<!DOCTYPE svg PUBLIC "-//W3C//DTD SVG 1.1//EN"
  "http://www.w3.org/Graphics/SVG/1.1/DTD/svg11.dtd">
<svg xmlns:xlink="http://www.w3.org/1999/xlink" width="360pt" height="360pt" viewBox="0 0 360 360" xmlns="http://www.w3.org/2000/svg" version="1.1">
 <metadata>
  <rdf:RDF xmlns:dc="http://purl.org/dc/elements/1.1/" xmlns:cc="http://creativecommons.org/ns#" xmlns:rdf="http://www.w3.org/1999/02/22-rdf-syntax-ns#">
   <cc:Work>
    <dc:type rdf:resource="http://purl.org/dc/dcmitype/StillImage"/>
    <dc:date>2024-08-02T11:39:40.165101</dc:date>
    <dc:format>image/svg+xml</dc:format>
    <dc:creator>
     <cc:Agent>
      <dc:title>Matplotlib v3.7.1, https://matplotlib.org/</dc:title>
     </cc:Agent>
    </dc:creator>
   </cc:Work>
  </rdf:RDF>
 </metadata>
 <defs>
  <style type="text/css">*{stroke-linejoin: round; stroke-linecap: butt}</style>
 </defs>
 <g id="figure_1">
  <g id="patch_1">
   <path d="M 0 360 
L 360 360 
L 360 0 
L 0 0 
z
" style="fill: #ffffff"/>
  </g>
  <g id="axes_1">
   <g id="patch_2">
    <path d="M 38.27 332.12 
L 349.2 332.12 
L 349.2 10.8 
L 38.27 10.8 
z
" style="fill: #ffffff"/>
   </g>
   <g id="PolyCollection_1">
    <defs>
     <path id="m63fe7a2874" d="M 52.403182 -27.880071 
L 52.403182 -27.88 
L 53.823602 -27.88 
L 55.244022 -27.88 
L 56.664443 -27.88 
L 58.084863 -27.88 
L 59.505283 -27.88 
L 60.925704 -27.88 
L 62.346124 -27.88 
L 63.766544 -27.88 
L 65.186964 -27.88 
L 66.607385 -27.88 
L 68.027805 -27.88 
L 69.448225 -27.88 
L 70.868646 -27.88 
L 72.289066 -27.88 
L 73.709486 -27.88 
L 75.129906 -27.88 
L 76.550327 -27.88 
L 77.970747 -27.88 
L 79.391167 -27.88 
L 80.811587 -27.88 
L 82.232008 -27.88 
L 83.652428 -27.88 
L 85.072848 -27.88 
L 86.493269 -27.88 
L 87.913689 -27.88 
L 89.334109 -27.88 
L 90.754529 -27.88 
L 92.17495 -27.88 
L 93.59537 -27.88 
L 95.01579 -27.88 
L 96.436211 -27.88 
L 97.856631 -27.88 
L 99.277051 -27.88 
L 100.697471 -27.88 
L 102.117892 -27.88 
L 103.538312 -27.88 
L 104.958732 -27.88 
L 106.379153 -27.88 
L 107.799573 -27.88 
L 109.219993 -27.88 
L 110.640413 -27.88 
L 112.060834 -27.88 
L 113.481254 -27.88 
L 114.901674 -27.88 
L 116.322095 -27.88 
L 117.742515 -27.88 
L 119.162935 -27.88 
L 120.583355 -27.88 
L 122.003776 -27.88 
L 123.424196 -27.88 
L 124.844616 -27.88 
L 126.265037 -27.88 
L 127.685457 -27.88 
L 129.105877 -27.88 
L 130.526297 -27.88 
L 131.946718 -27.88 
L 133.367138 -27.88 
L 134.787558 -27.88 
L 136.207979 -27.88 
L 137.628399 -27.88 
L 139.048819 -27.88 
L 140.469239 -27.88 
L 141.88966 -27.88 
L 143.31008 -27.88 
L 144.7305 -27.88 
L 146.150921 -27.88 
L 147.571341 -27.88 
L 148.991761 -27.88 
L 150.412181 -27.88 
L 151.832602 -27.88 
L 153.253022 -27.88 
L 154.673442 -27.88 
L 156.093862 -27.88 
L 157.514283 -27.88 
L 158.934703 -27.88 
L 160.355123 -27.88 
L 161.775544 -27.88 
L 163.195964 -27.88 
L 164.616384 -27.88 
L 166.036804 -27.88 
L 167.457225 -27.88 
L 168.877645 -27.88 
L 170.298065 -27.88 
L 171.718486 -27.88 
L 173.138906 -27.88 
L 174.559326 -27.88 
L 175.979746 -27.88 
L 177.400167 -27.88 
L 178.820587 -27.88 
L 180.241007 -27.88 
L 181.661428 -27.88 
L 183.081848 -27.88 
L 184.502268 -27.88 
L 185.922688 -27.88 
L 187.343109 -27.88 
L 188.763529 -27.88 
L 190.183949 -27.88 
L 191.60437 -27.88 
L 193.02479 -27.88 
L 194.44521 -27.88 
L 195.86563 -27.88 
L 197.286051 -27.88 
L 198.706471 -27.88 
L 200.126891 -27.88 
L 201.547312 -27.88 
L 202.967732 -27.88 
L 204.388152 -27.88 
L 205.808572 -27.88 
L 207.228993 -27.88 
L 208.649413 -27.88 
L 210.069833 -27.88 
L 211.490254 -27.88 
L 212.910674 -27.88 
L 214.331094 -27.88 
L 215.751514 -27.88 
L 217.171935 -27.88 
L 218.592355 -27.88 
L 220.012775 -27.88 
L 221.433196 -27.88 
L 222.853616 -27.88 
L 224.274036 -27.88 
L 225.694456 -27.88 
L 227.114877 -27.88 
L 228.535297 -27.88 
L 229.955717 -27.88 
L 231.376138 -27.88 
L 232.796558 -27.88 
L 234.216978 -27.88 
L 235.637398 -27.88 
L 237.057819 -27.88 
L 238.478239 -27.88 
L 239.898659 -27.88 
L 241.319079 -27.88 
L 242.7395 -27.88 
L 244.15992 -27.88 
L 245.58034 -27.88 
L 247.000761 -27.88 
L 248.421181 -27.88 
L 249.841601 -27.88 
L 251.262021 -27.88 
L 252.682442 -27.88 
L 254.102862 -27.88 
L 255.523282 -27.88 
L 256.943703 -27.88 
L 258.364123 -27.88 
L 259.784543 -27.88 
L 261.204963 -27.88 
L 262.625384 -27.88 
L 264.045804 -27.88 
L 265.466224 -27.88 
L 266.886645 -27.88 
L 268.307065 -27.88 
L 269.727485 -27.88 
L 271.147905 -27.88 
L 272.568326 -27.88 
L 273.988746 -27.88 
L 275.409166 -27.88 
L 276.829587 -27.88 
L 278.250007 -27.88 
L 279.670427 -27.88 
L 281.090847 -27.88 
L 282.511268 -27.88 
L 283.931688 -27.88 
L 285.352108 -27.88 
L 286.772529 -27.88 
L 288.192949 -27.88 
L 289.613369 -27.88 
L 291.033789 -27.88 
L 292.45421 -27.88 
L 293.87463 -27.88 
L 295.29505 -27.88 
L 296.715471 -27.88 
L 298.135891 -27.88 
L 299.556311 -27.88 
L 300.976731 -27.88 
L 302.397152 -27.88 
L 303.817572 -27.88 
L 305.237992 -27.88 
L 306.658413 -27.88 
L 308.078833 -27.88 
L 309.499253 -27.88 
L 310.919673 -27.88 
L 312.340094 -27.88 
L 313.760514 -27.88 
L 315.180934 -27.88 
L 316.601354 -27.88 
L 318.021775 -27.88 
L 319.442195 -27.88 
L 320.862615 -27.88 
L 322.283036 -27.88 
L 323.703456 -27.88 
L 325.123876 -27.88 
L 326.544296 -27.88 
L 327.964717 -27.88 
L 329.385137 -27.88 
L 330.805557 -27.88 
L 332.225978 -27.88 
L 333.646398 -27.88 
L 335.066818 -27.88 
L 335.066818 -27.920501 
L 335.066818 -27.920501 
L 333.646398 -28.142291 
L 332.225978 -29.146018 
L 330.805557 -32.49824 
L 329.385137 -40.854742 
L 327.964717 -56.67101 
L 326.544296 -79.993488 
L 325.123876 -107.820572 
L 323.703456 -136.091377 
L 322.283036 -162.034624 
L 320.862615 -184.761279 
L 319.442195 -204.564417 
L 318.021775 -222.106205 
L 316.601354 -237.89063 
L 315.180934 -252.097943 
L 313.760514 -264.759693 
L 312.340094 -276.02374 
L 310.919673 -286.217402 
L 309.499253 -295.587057 
L 308.078833 -304.020204 
L 306.658413 -311.214225 
L 305.237992 -317.101643 
L 303.817572 -321.955002 
L 302.397152 -326.133685 
L 300.976731 -329.836154 
L 299.556311 -333.030506 
L 298.135891 -335.578761 
L 296.715471 -337.469253 
L 295.29505 -338.830818 
L 293.87463 -339.698075 
L 292.45421 -340.009888 
L 291.033789 -339.848547 
L 289.613369 -339.432144 
L 288.192949 -338.866819 
L 286.772529 -338.046048 
L 285.352108 -336.813737 
L 283.931688 -335.168434 
L 282.511268 -333.247026 
L 281.090847 -331.156635 
L 279.670427 -328.900868 
L 278.250007 -326.371459 
L 276.829587 -323.369404 
L 275.409166 -319.753686 
L 273.988746 -315.611983 
L 272.568326 -311.256638 
L 271.147905 -306.99438 
L 269.727485 -302.914493 
L 268.307065 -298.965541 
L 266.886645 -295.10575 
L 265.466224 -291.235261 
L 264.045804 -287.134524 
L 262.625384 -282.688359 
L 261.204963 -278.055195 
L 259.784543 -273.406967 
L 258.364123 -268.691206 
L 256.943703 -263.833449 
L 255.523282 -258.921195 
L 254.102862 -254.055245 
L 252.682442 -249.23226 
L 251.262021 -244.413822 
L 249.841601 -239.543007 
L 248.421181 -234.496723 
L 247.000761 -229.174979 
L 245.58034 -223.669946 
L 244.15992 -218.24941 
L 242.7395 -213.099481 
L 241.319079 -208.135551 
L 239.898659 -203.216823 
L 238.478239 -198.440974 
L 237.057819 -193.959628 
L 235.637398 -189.686025 
L 234.216978 -185.441552 
L 232.796558 -181.171964 
L 231.376138 -176.883955 
L 229.955717 -172.566996 
L 228.535297 -168.225578 
L 227.114877 -163.871334 
L 225.694456 -159.504101 
L 224.274036 -155.162944 
L 222.853616 -150.927447 
L 221.433196 -146.821892 
L 220.012775 -142.791432 
L 218.592355 -138.801808 
L 217.171935 -134.895251 
L 215.751514 -131.14665 
L 214.331094 -127.631537 
L 212.910674 -124.393398 
L 211.490254 -121.365694 
L 210.069833 -118.375461 
L 208.649413 -115.259305 
L 207.228993 -111.95958 
L 205.808572 -108.563307 
L 204.388152 -105.237208 
L 202.967732 -102.04559 
L 201.547312 -98.913591 
L 200.126891 -95.81235 
L 198.706471 -92.828484 
L 197.286051 -90.034865 
L 195.86563 -87.424465 
L 194.44521 -84.971115 
L 193.02479 -82.661981 
L 191.60437 -80.443679 
L 190.183949 -78.212006 
L 188.763529 -75.916464 
L 187.343109 -73.632613 
L 185.922688 -71.47869 
L 184.502268 -69.479927 
L 183.081848 -67.562112 
L 181.661428 -65.665182 
L 180.241007 -63.81609 
L 178.820587 -62.088821 
L 177.400167 -60.506392 
L 175.979746 -58.993728 
L 174.559326 -57.463762 
L 173.138906 -55.938602 
L 171.718486 -54.506915 
L 170.298065 -53.178767 
L 168.877645 -51.884701 
L 167.457225 -50.596702 
L 166.036804 -49.354983 
L 164.616384 -48.194281 
L 163.195964 -47.104145 
L 161.775544 -46.046178 
L 160.355123 -44.999092 
L 158.934703 -43.992304 
L 157.514283 -43.065327 
L 156.093862 -42.203474 
L 154.673442 -41.356258 
L 153.253022 -40.503315 
L 151.832602 -39.669458 
L 150.412181 -38.895408 
L 148.991761 -38.206493 
L 147.571341 -37.578765 
L 146.150921 -36.948601 
L 144.7305 -36.291834 
L 143.31008 -35.663125 
L 141.88966 -35.128604 
L 140.469239 -34.692659 
L 139.048819 -34.304164 
L 137.628399 -33.908786 
L 136.207979 -33.489747 
L 134.787558 -33.061913 
L 133.367138 -32.635257 
L 131.946718 -32.207272 
L 130.526297 -31.789353 
L 129.105877 -31.414748 
L 127.685457 -31.110029 
L 126.265037 -30.867429 
L 124.844616 -30.654464 
L 123.424196 -30.445962 
L 122.003776 -30.237245 
L 120.583355 -30.034584 
L 119.162935 -29.845847 
L 117.742515 -29.673878 
L 116.322095 -29.512465 
L 114.901674 -29.356582 
L 113.481254 -29.216865 
L 112.060834 -29.109404 
L 110.640413 -29.030132 
L 109.219993 -28.954787 
L 107.799573 -28.863376 
L 106.379153 -28.756456 
L 104.958732 -28.651426 
L 103.538312 -28.56465 
L 102.117892 -28.497601 
L 100.697471 -28.441787 
L 99.277051 -28.389989 
L 97.856631 -28.339065 
L 96.436211 -28.288299 
L 95.01579 -28.238245 
L 93.59537 -28.189372 
L 92.17495 -28.142166 
L 90.754529 -28.098628 
L 89.334109 -28.062068 
L 87.913689 -28.035536 
L 86.493269 -28.019918 
L 85.072848 -28.012258 
L 83.652428 -28.006443 
L 82.232008 -27.996521 
L 80.811587 -27.980694 
L 79.391167 -27.962383 
L 77.970747 -27.946427 
L 76.550327 -27.935355 
L 75.129906 -27.929087 
L 73.709486 -27.925042 
L 72.289066 -27.918986 
L 70.868646 -27.909132 
L 69.448225 -27.89899 
L 68.027805 -27.893749 
L 66.607385 -27.894619 
L 65.186964 -27.898511 
L 63.766544 -27.90198 
L 62.346124 -27.90328 
L 60.925704 -27.901435 
L 59.505283 -27.896319 
L 58.084863 -27.88978 
L 56.664443 -27.884466 
L 55.244022 -27.881525 
L 53.823602 -27.880385 
L 52.403182 -27.880071 
z
" style="stroke: #1f77b4"/>
    </defs>
    <g clip-path="url(#p2557b36fee)">
     <use xlink:href="#m63fe7a2874" x="0" y="360" style="fill: #1f77b4; fill-opacity: 0.25; stroke: #1f77b4"/>
    </g>
   </g>
   <g id="matplotlib.axis_1">
    <g id="xtick_1">
     <g id="line2d_1">
      <defs>
       <path id="me034f0a499" d="M 0 0 
L 0 3.5 
" style="stroke: #000000; stroke-width: 0.8"/>
      </defs>
      <g>
       <use xlink:href="#me034f0a499" x="59.940206" y="332.12" style="stroke: #000000; stroke-width: 0.8"/>
      </g>
     </g>
     <g id="text_1">
      <!-- 2.3 -->
      <g transform="translate(51.988644 346.718437) scale(0.1 -0.1)">
       <defs>
        <path id="DejaVuSans-32" d="M 1228 531 
L 3431 531 
L 3431 0 
L 469 0 
L 469 531 
Q 828 903 1448 1529 
Q 2069 2156 2228 2338 
Q 2531 2678 2651 2914 
Q 2772 3150 2772 3378 
Q 2772 3750 2511 3984 
Q 2250 4219 1831 4219 
Q 1534 4219 1204 4116 
Q 875 4013 500 3803 
L 500 4441 
Q 881 4594 1212 4672 
Q 1544 4750 1819 4750 
Q 2544 4750 2975 4387 
Q 3406 4025 3406 3419 
Q 3406 3131 3298 2873 
Q 3191 2616 2906 2266 
Q 2828 2175 2409 1742 
Q 1991 1309 1228 531 
z
" transform="scale(0.015625)"/>
        <path id="DejaVuSans-2e" d="M 684 794 
L 1344 794 
L 1344 0 
L 684 0 
L 684 794 
z
" transform="scale(0.015625)"/>
        <path id="DejaVuSans-33" d="M 2597 2516 
Q 3050 2419 3304 2112 
Q 3559 1806 3559 1356 
Q 3559 666 3084 287 
Q 2609 -91 1734 -91 
Q 1441 -91 1130 -33 
Q 819 25 488 141 
L 488 750 
Q 750 597 1062 519 
Q 1375 441 1716 441 
Q 2309 441 2620 675 
Q 2931 909 2931 1356 
Q 2931 1769 2642 2001 
Q 2353 2234 1838 2234 
L 1294 2234 
L 1294 2753 
L 1863 2753 
Q 2328 2753 2575 2939 
Q 2822 3125 2822 3475 
Q 2822 3834 2567 4026 
Q 2313 4219 1838 4219 
Q 1578 4219 1281 4162 
Q 984 4106 628 3988 
L 628 4550 
Q 988 4650 1302 4700 
Q 1616 4750 1894 4750 
Q 2613 4750 3031 4423 
Q 3450 4097 3450 3541 
Q 3450 3153 3228 2886 
Q 3006 2619 2597 2516 
z
" transform="scale(0.015625)"/>
       </defs>
       <use xlink:href="#DejaVuSans-32"/>
       <use xlink:href="#DejaVuSans-2e" x="63.623047"/>
       <use xlink:href="#DejaVuSans-33" x="95.410156"/>
      </g>
     </g>
    </g>
    <g id="xtick_2">
     <g id="line2d_2">
      <g>
       <use xlink:href="#me034f0a499" x="99.76668" y="332.12" style="stroke: #000000; stroke-width: 0.8"/>
      </g>
     </g>
     <g id="text_2">
      <!-- 2.4 -->
      <g transform="translate(91.815118 346.718437) scale(0.1 -0.1)">
       <defs>
        <path id="DejaVuSans-34" d="M 2419 4116 
L 825 1625 
L 2419 1625 
L 2419 4116 
z
M 2253 4666 
L 3047 4666 
L 3047 1625 
L 3713 1625 
L 3713 1100 
L 3047 1100 
L 3047 0 
L 2419 0 
L 2419 1100 
L 313 1100 
L 313 1709 
L 2253 4666 
z
" transform="scale(0.015625)"/>
       </defs>
       <use xlink:href="#DejaVuSans-32"/>
       <use xlink:href="#DejaVuSans-2e" x="63.623047"/>
       <use xlink:href="#DejaVuSans-34" x="95.410156"/>
      </g>
     </g>
    </g>
    <g id="xtick_3">
     <g id="line2d_3">
      <g>
       <use xlink:href="#me034f0a499" x="139.593155" y="332.12" style="stroke: #000000; stroke-width: 0.8"/>
      </g>
     </g>
     <g id="text_3">
      <!-- 2.5 -->
      <g transform="translate(131.641592 346.718437) scale(0.1 -0.1)">
       <defs>
        <path id="DejaVuSans-35" d="M 691 4666 
L 3169 4666 
L 3169 4134 
L 1269 4134 
L 1269 2991 
Q 1406 3038 1543 3061 
Q 1681 3084 1819 3084 
Q 2600 3084 3056 2656 
Q 3513 2228 3513 1497 
Q 3513 744 3044 326 
Q 2575 -91 1722 -91 
Q 1428 -91 1123 -41 
Q 819 9 494 109 
L 494 744 
Q 775 591 1075 516 
Q 1375 441 1709 441 
Q 2250 441 2565 725 
Q 2881 1009 2881 1497 
Q 2881 1984 2565 2268 
Q 2250 2553 1709 2553 
Q 1456 2553 1204 2497 
Q 953 2441 691 2322 
L 691 4666 
z
" transform="scale(0.015625)"/>
       </defs>
       <use xlink:href="#DejaVuSans-32"/>
       <use xlink:href="#DejaVuSans-2e" x="63.623047"/>
       <use xlink:href="#DejaVuSans-35" x="95.410156"/>
      </g>
     </g>
    </g>
    <g id="xtick_4">
     <g id="line2d_4">
      <g>
       <use xlink:href="#me034f0a499" x="179.419629" y="332.12" style="stroke: #000000; stroke-width: 0.8"/>
      </g>
     </g>
     <g id="text_4">
      <!-- 2.6 -->
      <g transform="translate(171.468067 346.718437) scale(0.1 -0.1)">
       <defs>
        <path id="DejaVuSans-36" d="M 2113 2584 
Q 1688 2584 1439 2293 
Q 1191 2003 1191 1497 
Q 1191 994 1439 701 
Q 1688 409 2113 409 
Q 2538 409 2786 701 
Q 3034 994 3034 1497 
Q 3034 2003 2786 2293 
Q 2538 2584 2113 2584 
z
M 3366 4563 
L 3366 3988 
Q 3128 4100 2886 4159 
Q 2644 4219 2406 4219 
Q 1781 4219 1451 3797 
Q 1122 3375 1075 2522 
Q 1259 2794 1537 2939 
Q 1816 3084 2150 3084 
Q 2853 3084 3261 2657 
Q 3669 2231 3669 1497 
Q 3669 778 3244 343 
Q 2819 -91 2113 -91 
Q 1303 -91 875 529 
Q 447 1150 447 2328 
Q 447 3434 972 4092 
Q 1497 4750 2381 4750 
Q 2619 4750 2861 4703 
Q 3103 4656 3366 4563 
z
" transform="scale(0.015625)"/>
       </defs>
       <use xlink:href="#DejaVuSans-32"/>
       <use xlink:href="#DejaVuSans-2e" x="63.623047"/>
       <use xlink:href="#DejaVuSans-36" x="95.410156"/>
      </g>
     </g>
    </g>
    <g id="xtick_5">
     <g id="line2d_5">
      <g>
       <use xlink:href="#me034f0a499" x="219.246103" y="332.12" style="stroke: #000000; stroke-width: 0.8"/>
      </g>
     </g>
     <g id="text_5">
      <!-- 2.7 -->
      <g transform="translate(211.294541 346.718437) scale(0.1 -0.1)">
       <defs>
        <path id="DejaVuSans-37" d="M 525 4666 
L 3525 4666 
L 3525 4397 
L 1831 0 
L 1172 0 
L 2766 4134 
L 525 4134 
L 525 4666 
z
" transform="scale(0.015625)"/>
       </defs>
       <use xlink:href="#DejaVuSans-32"/>
       <use xlink:href="#DejaVuSans-2e" x="63.623047"/>
       <use xlink:href="#DejaVuSans-37" x="95.410156"/>
      </g>
     </g>
    </g>
    <g id="xtick_6">
     <g id="line2d_6">
      <g>
       <use xlink:href="#me034f0a499" x="259.072578" y="332.12" style="stroke: #000000; stroke-width: 0.8"/>
      </g>
     </g>
     <g id="text_6">
      <!-- 2.8 -->
      <g transform="translate(251.121015 346.718437) scale(0.1 -0.1)">
       <defs>
        <path id="DejaVuSans-38" d="M 2034 2216 
Q 1584 2216 1326 1975 
Q 1069 1734 1069 1313 
Q 1069 891 1326 650 
Q 1584 409 2034 409 
Q 2484 409 2743 651 
Q 3003 894 3003 1313 
Q 3003 1734 2745 1975 
Q 2488 2216 2034 2216 
z
M 1403 2484 
Q 997 2584 770 2862 
Q 544 3141 544 3541 
Q 544 4100 942 4425 
Q 1341 4750 2034 4750 
Q 2731 4750 3128 4425 
Q 3525 4100 3525 3541 
Q 3525 3141 3298 2862 
Q 3072 2584 2669 2484 
Q 3125 2378 3379 2068 
Q 3634 1759 3634 1313 
Q 3634 634 3220 271 
Q 2806 -91 2034 -91 
Q 1263 -91 848 271 
Q 434 634 434 1313 
Q 434 1759 690 2068 
Q 947 2378 1403 2484 
z
M 1172 3481 
Q 1172 3119 1398 2916 
Q 1625 2713 2034 2713 
Q 2441 2713 2670 2916 
Q 2900 3119 2900 3481 
Q 2900 3844 2670 4047 
Q 2441 4250 2034 4250 
Q 1625 4250 1398 4047 
Q 1172 3844 1172 3481 
z
" transform="scale(0.015625)"/>
       </defs>
       <use xlink:href="#DejaVuSans-32"/>
       <use xlink:href="#DejaVuSans-2e" x="63.623047"/>
       <use xlink:href="#DejaVuSans-38" x="95.410156"/>
      </g>
     </g>
    </g>
    <g id="xtick_7">
     <g id="line2d_7">
      <g>
       <use xlink:href="#me034f0a499" x="298.899052" y="332.12" style="stroke: #000000; stroke-width: 0.8"/>
      </g>
     </g>
     <g id="text_7">
      <!-- 2.9 -->
      <g transform="translate(290.94749 346.718437) scale(0.1 -0.1)">
       <defs>
        <path id="DejaVuSans-39" d="M 703 97 
L 703 672 
Q 941 559 1184 500 
Q 1428 441 1663 441 
Q 2288 441 2617 861 
Q 2947 1281 2994 2138 
Q 2813 1869 2534 1725 
Q 2256 1581 1919 1581 
Q 1219 1581 811 2004 
Q 403 2428 403 3163 
Q 403 3881 828 4315 
Q 1253 4750 1959 4750 
Q 2769 4750 3195 4129 
Q 3622 3509 3622 2328 
Q 3622 1225 3098 567 
Q 2575 -91 1691 -91 
Q 1453 -91 1209 -44 
Q 966 3 703 97 
z
M 1959 2075 
Q 2384 2075 2632 2365 
Q 2881 2656 2881 3163 
Q 2881 3666 2632 3958 
Q 2384 4250 1959 4250 
Q 1534 4250 1286 3958 
Q 1038 3666 1038 3163 
Q 1038 2656 1286 2365 
Q 1534 2075 1959 2075 
z
" transform="scale(0.015625)"/>
       </defs>
       <use xlink:href="#DejaVuSans-32"/>
       <use xlink:href="#DejaVuSans-2e" x="63.623047"/>
       <use xlink:href="#DejaVuSans-39" x="95.410156"/>
      </g>
     </g>
    </g>
    <g id="xtick_8">
     <g id="line2d_8">
      <g>
       <use xlink:href="#me034f0a499" x="338.725526" y="332.12" style="stroke: #000000; stroke-width: 0.8"/>
      </g>
     </g>
     <g id="text_8">
      <!-- 3.0 -->
      <g transform="translate(330.773964 346.718437) scale(0.1 -0.1)">
       <defs>
        <path id="DejaVuSans-30" d="M 2034 4250 
Q 1547 4250 1301 3770 
Q 1056 3291 1056 2328 
Q 1056 1369 1301 889 
Q 1547 409 2034 409 
Q 2525 409 2770 889 
Q 3016 1369 3016 2328 
Q 3016 3291 2770 3770 
Q 2525 4250 2034 4250 
z
M 2034 4750 
Q 2819 4750 3233 4129 
Q 3647 3509 3647 2328 
Q 3647 1150 3233 529 
Q 2819 -91 2034 -91 
Q 1250 -91 836 529 
Q 422 1150 422 2328 
Q 422 3509 836 4129 
Q 1250 4750 2034 4750 
z
" transform="scale(0.015625)"/>
       </defs>
       <use xlink:href="#DejaVuSans-33"/>
       <use xlink:href="#DejaVuSans-2e" x="63.623047"/>
       <use xlink:href="#DejaVuSans-30" x="95.410156"/>
      </g>
     </g>
    </g>
   </g>
   <g id="matplotlib.axis_2">
    <g id="ytick_1">
     <g id="line2d_9">
      <defs>
       <path id="mfc046d5658" d="M 0 0 
L -3.5 0 
" style="stroke: #000000; stroke-width: 0.8"/>
      </defs>
      <g>
       <use xlink:href="#mfc046d5658" x="38.27" y="332.12" style="stroke: #000000; stroke-width: 0.8"/>
      </g>
     </g>
     <g id="text_9">
      <!-- 0.0 -->
      <g transform="translate(15.366875 335.919219) scale(0.1 -0.1)">
       <use xlink:href="#DejaVuSans-30"/>
       <use xlink:href="#DejaVuSans-2e" x="63.623047"/>
       <use xlink:href="#DejaVuSans-30" x="95.410156"/>
      </g>
     </g>
    </g>
    <g id="ytick_2">
     <g id="line2d_10">
      <g>
       <use xlink:href="#mfc046d5658" x="38.27" y="296.417778" style="stroke: #000000; stroke-width: 0.8"/>
      </g>
     </g>
     <g id="text_10">
      <!-- 0.5 -->
      <g transform="translate(15.366875 300.216997) scale(0.1 -0.1)">
       <use xlink:href="#DejaVuSans-30"/>
       <use xlink:href="#DejaVuSans-2e" x="63.623047"/>
       <use xlink:href="#DejaVuSans-35" x="95.410156"/>
      </g>
     </g>
    </g>
    <g id="ytick_3">
     <g id="line2d_11">
      <g>
       <use xlink:href="#mfc046d5658" x="38.27" y="260.715556" style="stroke: #000000; stroke-width: 0.8"/>
      </g>
     </g>
     <g id="text_11">
      <!-- 1.0 -->
      <g transform="translate(15.366875 264.514774) scale(0.1 -0.1)">
       <defs>
        <path id="DejaVuSans-31" d="M 794 531 
L 1825 531 
L 1825 4091 
L 703 3866 
L 703 4441 
L 1819 4666 
L 2450 4666 
L 2450 531 
L 3481 531 
L 3481 0 
L 794 0 
L 794 531 
z
" transform="scale(0.015625)"/>
       </defs>
       <use xlink:href="#DejaVuSans-31"/>
       <use xlink:href="#DejaVuSans-2e" x="63.623047"/>
       <use xlink:href="#DejaVuSans-30" x="95.410156"/>
      </g>
     </g>
    </g>
    <g id="ytick_4">
     <g id="line2d_12">
      <g>
       <use xlink:href="#mfc046d5658" x="38.27" y="225.013333" style="stroke: #000000; stroke-width: 0.8"/>
      </g>
     </g>
     <g id="text_12">
      <!-- 1.5 -->
      <g transform="translate(15.366875 228.812552) scale(0.1 -0.1)">
       <use xlink:href="#DejaVuSans-31"/>
       <use xlink:href="#DejaVuSans-2e" x="63.623047"/>
       <use xlink:href="#DejaVuSans-35" x="95.410156"/>
      </g>
     </g>
    </g>
    <g id="ytick_5">
     <g id="line2d_13">
      <g>
       <use xlink:href="#mfc046d5658" x="38.27" y="189.311111" style="stroke: #000000; stroke-width: 0.8"/>
      </g>
     </g>
     <g id="text_13">
      <!-- 2.0 -->
      <g transform="translate(15.366875 193.11033) scale(0.1 -0.1)">
       <use xlink:href="#DejaVuSans-32"/>
       <use xlink:href="#DejaVuSans-2e" x="63.623047"/>
       <use xlink:href="#DejaVuSans-30" x="95.410156"/>
      </g>
     </g>
    </g>
    <g id="ytick_6">
     <g id="line2d_14">
      <g>
       <use xlink:href="#mfc046d5658" x="38.27" y="153.608889" style="stroke: #000000; stroke-width: 0.8"/>
      </g>
     </g>
     <g id="text_14">
      <!-- 2.5 -->
      <g transform="translate(15.366875 157.408108) scale(0.1 -0.1)">
       <use xlink:href="#DejaVuSans-32"/>
       <use xlink:href="#DejaVuSans-2e" x="63.623047"/>
       <use xlink:href="#DejaVuSans-35" x="95.410156"/>
      </g>
     </g>
    </g>
    <g id="ytick_7">
     <g id="line2d_15">
      <g>
       <use xlink:href="#mfc046d5658" x="38.27" y="117.906667" style="stroke: #000000; stroke-width: 0.8"/>
      </g>
     </g>
     <g id="text_15">
      <!-- 3.0 -->
      <g transform="translate(15.366875 121.705885) scale(0.1 -0.1)">
       <use xlink:href="#DejaVuSans-33"/>
       <use xlink:href="#DejaVuSans-2e" x="63.623047"/>
       <use xlink:href="#DejaVuSans-30" x="95.410156"/>
      </g>
     </g>
    </g>
    <g id="ytick_8">
     <g id="line2d_16">
      <g>
       <use xlink:href="#mfc046d5658" x="38.27" y="82.204444" style="stroke: #000000; stroke-width: 0.8"/>
      </g>
     </g>
     <g id="text_16">
      <!-- 3.5 -->
      <g transform="translate(15.366875 86.003663) scale(0.1 -0.1)">
       <use xlink:href="#DejaVuSans-33"/>
       <use xlink:href="#DejaVuSans-2e" x="63.623047"/>
       <use xlink:href="#DejaVuSans-35" x="95.410156"/>
      </g>
     </g>
    </g>
    <g id="ytick_9">
     <g id="line2d_17">
      <g>
       <use xlink:href="#mfc046d5658" x="38.27" y="46.502222" style="stroke: #000000; stroke-width: 0.8"/>
      </g>
     </g>
     <g id="text_17">
      <!-- 4.0 -->
      <g transform="translate(15.366875 50.301441) scale(0.1 -0.1)">
       <use xlink:href="#DejaVuSans-34"/>
       <use xlink:href="#DejaVuSans-2e" x="63.623047"/>
       <use xlink:href="#DejaVuSans-30" x="95.410156"/>
      </g>
     </g>
    </g>
    <g id="ytick_10">
     <g id="line2d_18">
      <g>
       <use xlink:href="#mfc046d5658" x="38.27" y="10.8" style="stroke: #000000; stroke-width: 0.8"/>
      </g>
     </g>
     <g id="text_18">
      <!-- 4.5 -->
      <g transform="translate(15.366875 14.599219) scale(0.1 -0.1)">
       <use xlink:href="#DejaVuSans-34"/>
       <use xlink:href="#DejaVuSans-2e" x="63.623047"/>
       <use xlink:href="#DejaVuSans-35" x="95.410156"/>
      </g>
     </g>
    </g>
    <g id="text_19">
     <!-- Density -->
     <g transform="translate(9.287187 190.468594) rotate(-90) scale(0.1 -0.1)">
      <defs>
       <path id="DejaVuSans-44" d="M 1259 4147 
L 1259 519 
L 2022 519 
Q 2988 519 3436 956 
Q 3884 1394 3884 2338 
Q 3884 3275 3436 3711 
Q 2988 4147 2022 4147 
L 1259 4147 
z
M 628 4666 
L 1925 4666 
Q 3281 4666 3915 4102 
Q 4550 3538 4550 2338 
Q 4550 1131 3912 565 
Q 3275 0 1925 0 
L 628 0 
L 628 4666 
z
" transform="scale(0.015625)"/>
       <path id="DejaVuSans-65" d="M 3597 1894 
L 3597 1613 
L 953 1613 
Q 991 1019 1311 708 
Q 1631 397 2203 397 
Q 2534 397 2845 478 
Q 3156 559 3463 722 
L 3463 178 
Q 3153 47 2828 -22 
Q 2503 -91 2169 -91 
Q 1331 -91 842 396 
Q 353 884 353 1716 
Q 353 2575 817 3079 
Q 1281 3584 2069 3584 
Q 2775 3584 3186 3129 
Q 3597 2675 3597 1894 
z
M 3022 2063 
Q 3016 2534 2758 2815 
Q 2500 3097 2075 3097 
Q 1594 3097 1305 2825 
Q 1016 2553 972 2059 
L 3022 2063 
z
" transform="scale(0.015625)"/>
       <path id="DejaVuSans-6e" d="M 3513 2113 
L 3513 0 
L 2938 0 
L 2938 2094 
Q 2938 2591 2744 2837 
Q 2550 3084 2163 3084 
Q 1697 3084 1428 2787 
Q 1159 2491 1159 1978 
L 1159 0 
L 581 0 
L 581 3500 
L 1159 3500 
L 1159 2956 
Q 1366 3272 1645 3428 
Q 1925 3584 2291 3584 
Q 2894 3584 3203 3211 
Q 3513 2838 3513 2113 
z
" transform="scale(0.015625)"/>
       <path id="DejaVuSans-73" d="M 2834 3397 
L 2834 2853 
Q 2591 2978 2328 3040 
Q 2066 3103 1784 3103 
Q 1356 3103 1142 2972 
Q 928 2841 928 2578 
Q 928 2378 1081 2264 
Q 1234 2150 1697 2047 
L 1894 2003 
Q 2506 1872 2764 1633 
Q 3022 1394 3022 966 
Q 3022 478 2636 193 
Q 2250 -91 1575 -91 
Q 1294 -91 989 -36 
Q 684 19 347 128 
L 347 722 
Q 666 556 975 473 
Q 1284 391 1588 391 
Q 1994 391 2212 530 
Q 2431 669 2431 922 
Q 2431 1156 2273 1281 
Q 2116 1406 1581 1522 
L 1381 1569 
Q 847 1681 609 1914 
Q 372 2147 372 2553 
Q 372 3047 722 3315 
Q 1072 3584 1716 3584 
Q 2034 3584 2315 3537 
Q 2597 3491 2834 3397 
z
" transform="scale(0.015625)"/>
       <path id="DejaVuSans-69" d="M 603 3500 
L 1178 3500 
L 1178 0 
L 603 0 
L 603 3500 
z
M 603 4863 
L 1178 4863 
L 1178 4134 
L 603 4134 
L 603 4863 
z
" transform="scale(0.015625)"/>
       <path id="DejaVuSans-74" d="M 1172 4494 
L 1172 3500 
L 2356 3500 
L 2356 3053 
L 1172 3053 
L 1172 1153 
Q 1172 725 1289 603 
Q 1406 481 1766 481 
L 2356 481 
L 2356 0 
L 1766 0 
Q 1100 0 847 248 
Q 594 497 594 1153 
L 594 3053 
L 172 3053 
L 172 3500 
L 594 3500 
L 594 4494 
L 1172 4494 
z
" transform="scale(0.015625)"/>
       <path id="DejaVuSans-79" d="M 2059 -325 
Q 1816 -950 1584 -1140 
Q 1353 -1331 966 -1331 
L 506 -1331 
L 506 -850 
L 844 -850 
Q 1081 -850 1212 -737 
Q 1344 -625 1503 -206 
L 1606 56 
L 191 3500 
L 800 3500 
L 1894 763 
L 2988 3500 
L 3597 3500 
L 2059 -325 
z
" transform="scale(0.015625)"/>
      </defs>
      <use xlink:href="#DejaVuSans-44"/>
      <use xlink:href="#DejaVuSans-65" x="77.001953"/>
      <use xlink:href="#DejaVuSans-6e" x="138.525391"/>
      <use xlink:href="#DejaVuSans-73" x="201.904297"/>
      <use xlink:href="#DejaVuSans-69" x="254.003906"/>
      <use xlink:href="#DejaVuSans-74" x="281.787109"/>
      <use xlink:href="#DejaVuSans-79" x="320.996094"/>
     </g>
    </g>
   </g>
   <g id="LineCollection_1">
    <path d="M 193.054367 332.12 
L 193.054367 46.502222 
" clip-path="url(#p2557b36fee)" style="fill: none; stroke: #ff0000; stroke-width: 1.5"/>
    <path d="M 272.958868 332.12 
L 272.958868 46.502222 
" clip-path="url(#p2557b36fee)" style="fill: none; stroke: #ff0000; stroke-width: 1.5"/>
    <path d="M 316.808819 332.12 
L 316.808819 46.502222 
" clip-path="url(#p2557b36fee)" style="fill: none; stroke: #ff0000; stroke-width: 1.5"/>
   </g>
   <g id="patch_3">
    <path d="M 38.27 332.12 
L 38.27 10.8 
" style="fill: none; stroke: #000000; stroke-width: 0.8; stroke-linejoin: miter; stroke-linecap: square"/>
   </g>
   <g id="patch_4">
    <path d="M 38.27 332.12 
L 349.2 332.12 
" style="fill: none; stroke: #000000; stroke-width: 0.8; stroke-linejoin: miter; stroke-linecap: square"/>
   </g>
  </g>
 </g>
 <defs>
  <clipPath id="p2557b36fee">
   <rect x="38.27" y="10.8" width="310.93" height="321.32"/>
  </clipPath>
 </defs>
</svg>
