<?xml version="1.0" encoding="utf-8" standalone="no"?>
<!DOCTYPE svg PUBLIC "-//W3C//DTD SVG 1.1//EN"
  "http://www.w3.org/Graphics/SVG/1.1/DTD/svg11.dtd">
<svg xmlns:xlink="http://www.w3.org/1999/xlink" width="360pt" height="360pt" viewBox="0 0 360 360" xmlns="http://www.w3.org/2000/svg" version="1.1">
 <metadata>
  <rdf:RDF xmlns:dc="http://purl.org/dc/elements/1.1/" xmlns:cc="http://creativecommons.org/ns#" xmlns:rdf="http://www.w3.org/1999/02/22-rdf-syntax-ns#">
   <cc:Work>
    <dc:type rdf:resource="http://purl.org/dc/dcmitype/StillImage"/>
    <dc:date>2024-08-02T11:30:23.297818</dc:date>
    <dc:format>image/svg+xml</dc:format>
    <dc:creator>
     <cc:Agent>
      <dc:title>Matplotlib v3.7.1, https://matplotlib.org/</dc:title>
     </cc:Agent>
    </dc:creator>
   </cc:Work>
  </rdf:RDF>
 </metadata>
 <defs>
  <style type="text/css">*{stroke-linejoin: round; stroke-linecap: butt}</style>
 </defs>
 <g id="figure_1">
  <g id="patch_1">
   <path d="M 0 360 
L 360 360 
L 360 0 
L 0 0 
z
" style="fill: #ffffff"/>
  </g>
  <g id="axes_1">
   <g id="patch_2">
    <path d="M 47.72 332.12 
L 349.2 332.12 
L 349.2 12.177404 
L 47.72 12.177404 
z
" style="fill: #ffffff"/>
   </g>
   <g id="PolyCollection_1">
    <defs>
     <path id="m5d69dd3a5b" d="M 61.423636 -27.880053 
L 61.423636 -27.88 
L 62.800886 -27.88 
L 64.178136 -27.88 
L 65.555386 -27.88 
L 66.932636 -27.88 
L 68.309886 -27.88 
L 69.687136 -27.88 
L 71.064386 -27.88 
L 72.441635 -27.88 
L 73.818885 -27.88 
L 75.196135 -27.88 
L 76.573385 -27.88 
L 77.950635 -27.88 
L 79.327885 -27.88 
L 80.705135 -27.88 
L 82.082385 -27.88 
L 83.459635 -27.88 
L 84.836884 -27.88 
L 86.214134 -27.88 
L 87.591384 -27.88 
L 88.968634 -27.88 
L 90.345884 -27.88 
L 91.723134 -27.88 
L 93.100384 -27.88 
L 94.477634 -27.88 
L 95.854884 -27.88 
L 97.232133 -27.88 
L 98.609383 -27.88 
L 99.986633 -27.88 
L 101.363883 -27.88 
L 102.741133 -27.88 
L 104.118383 -27.88 
L 105.495633 -27.88 
L 106.872883 -27.88 
L 108.250132 -27.88 
L 109.627382 -27.88 
L 111.004632 -27.88 
L 112.381882 -27.88 
L 113.759132 -27.88 
L 115.136382 -27.88 
L 116.513632 -27.88 
L 117.890882 -27.88 
L 119.268132 -27.88 
L 120.645381 -27.88 
L 122.022631 -27.88 
L 123.399881 -27.88 
L 124.777131 -27.88 
L 126.154381 -27.88 
L 127.531631 -27.88 
L 128.908881 -27.88 
L 130.286131 -27.88 
L 131.663381 -27.88 
L 133.04063 -27.88 
L 134.41788 -27.88 
L 135.79513 -27.88 
L 137.17238 -27.88 
L 138.54963 -27.88 
L 139.92688 -27.88 
L 141.30413 -27.88 
L 142.68138 -27.88 
L 144.05863 -27.88 
L 145.435879 -27.88 
L 146.813129 -27.88 
L 148.190379 -27.88 
L 149.567629 -27.88 
L 150.944879 -27.88 
L 152.322129 -27.88 
L 153.699379 -27.88 
L 155.076629 -27.88 
L 156.453878 -27.88 
L 157.831128 -27.88 
L 159.208378 -27.88 
L 160.585628 -27.88 
L 161.962878 -27.88 
L 163.340128 -27.88 
L 164.717378 -27.88 
L 166.094628 -27.88 
L 167.471878 -27.88 
L 168.849127 -27.88 
L 170.226377 -27.88 
L 171.603627 -27.88 
L 172.980877 -27.88 
L 174.358127 -27.88 
L 175.735377 -27.88 
L 177.112627 -27.88 
L 178.489877 -27.88 
L 179.867127 -27.88 
L 181.244376 -27.88 
L 182.621626 -27.88 
L 183.998876 -27.88 
L 185.376126 -27.88 
L 186.753376 -27.88 
L 188.130626 -27.88 
L 189.507876 -27.88 
L 190.885126 -27.88 
L 192.262376 -27.88 
L 193.639625 -27.88 
L 195.016875 -27.88 
L 196.394125 -27.88 
L 197.771375 -27.88 
L 199.148625 -27.88 
L 200.525875 -27.88 
L 201.903125 -27.88 
L 203.280375 -27.88 
L 204.657624 -27.88 
L 206.034874 -27.88 
L 207.412124 -27.88 
L 208.789374 -27.88 
L 210.166624 -27.88 
L 211.543874 -27.88 
L 212.921124 -27.88 
L 214.298374 -27.88 
L 215.675624 -27.88 
L 217.052873 -27.88 
L 218.430123 -27.88 
L 219.807373 -27.88 
L 221.184623 -27.88 
L 222.561873 -27.88 
L 223.939123 -27.88 
L 225.316373 -27.88 
L 226.693623 -27.88 
L 228.070873 -27.88 
L 229.448122 -27.88 
L 230.825372 -27.88 
L 232.202622 -27.88 
L 233.579872 -27.88 
L 234.957122 -27.88 
L 236.334372 -27.88 
L 237.711622 -27.88 
L 239.088872 -27.88 
L 240.466122 -27.88 
L 241.843371 -27.88 
L 243.220621 -27.88 
L 244.597871 -27.88 
L 245.975121 -27.88 
L 247.352371 -27.88 
L 248.729621 -27.88 
L 250.106871 -27.88 
L 251.484121 -27.88 
L 252.86137 -27.88 
L 254.23862 -27.88 
L 255.61587 -27.88 
L 256.99312 -27.88 
L 258.37037 -27.88 
L 259.74762 -27.88 
L 261.12487 -27.88 
L 262.50212 -27.88 
L 263.87937 -27.88 
L 265.256619 -27.88 
L 266.633869 -27.88 
L 268.011119 -27.88 
L 269.388369 -27.88 
L 270.765619 -27.88 
L 272.142869 -27.88 
L 273.520119 -27.88 
L 274.897369 -27.88 
L 276.274619 -27.88 
L 277.651868 -27.88 
L 279.029118 -27.88 
L 280.406368 -27.88 
L 281.783618 -27.88 
L 283.160868 -27.88 
L 284.538118 -27.88 
L 285.915368 -27.88 
L 287.292618 -27.88 
L 288.669868 -27.88 
L 290.047117 -27.88 
L 291.424367 -27.88 
L 292.801617 -27.88 
L 294.178867 -27.88 
L 295.556117 -27.88 
L 296.933367 -27.88 
L 298.310617 -27.88 
L 299.687867 -27.88 
L 301.065116 -27.88 
L 302.442366 -27.88 
L 303.819616 -27.88 
L 305.196866 -27.88 
L 306.574116 -27.88 
L 307.951366 -27.88 
L 309.328616 -27.88 
L 310.705866 -27.88 
L 312.083116 -27.88 
L 313.460365 -27.88 
L 314.837615 -27.88 
L 316.214865 -27.88 
L 317.592115 -27.88 
L 318.969365 -27.88 
L 320.346615 -27.88 
L 321.723865 -27.88 
L 323.101115 -27.88 
L 324.478365 -27.88 
L 325.855614 -27.88 
L 327.232864 -27.88 
L 328.610114 -27.88 
L 329.987364 -27.88 
L 331.364614 -27.88 
L 332.741864 -27.88 
L 334.119114 -27.88 
L 335.496364 -27.88 
L 335.496364 -27.880751 
L 335.496364 -27.880751 
L 334.119114 -27.885233 
L 332.741864 -27.907463 
L 331.364614 -27.990722 
L 329.987364 -28.231579 
L 328.610114 -28.78464 
L 327.232864 -29.824464 
L 325.855614 -31.481173 
L 324.478365 -33.806604 
L 323.101115 -36.804656 
L 321.723865 -40.483205 
L 320.346615 -44.859031 
L 318.969365 -49.914142 
L 317.592115 -55.572446 
L 316.214865 -61.732668 
L 314.837615 -68.314788 
L 313.460365 -75.298418 
L 312.083116 -82.729172 
L 310.705866 -90.635466 
L 309.328616 -98.940279 
L 307.951366 -107.502626 
L 306.574116 -116.187423 
L 305.196866 -124.883815 
L 303.819616 -133.589962 
L 302.442366 -142.43191 
L 301.065116 -151.47046 
L 299.687867 -160.606535 
L 298.310617 -169.721107 
L 296.933367 -178.760822 
L 295.556117 -187.671459 
L 294.178867 -196.339627 
L 292.801617 -204.660547 
L 291.424367 -212.640208 
L 290.047117 -220.348032 
L 288.669868 -227.845351 
L 287.292618 -235.251599 
L 285.915368 -242.696119 
L 284.538118 -250.143115 
L 283.160868 -257.448587 
L 281.783618 -264.497538 
L 280.406368 -271.139619 
L 279.029118 -277.200772 
L 277.651868 -282.658344 
L 276.274619 -287.605699 
L 274.897369 -292.070137 
L 273.520119 -296.070463 
L 272.142869 -299.793309 
L 270.765619 -303.561759 
L 269.388369 -307.533042 
L 268.011119 -311.35532 
L 266.633869 -314.349925 
L 265.256619 -316.199268 
L 263.87937 -317.190256 
L 262.50212 -317.776378 
L 261.12487 -318.252791 
L 259.74762 -318.809503 
L 258.37037 -319.517145 
L 256.99312 -320.181563 
L 255.61587 -320.458296 
L 254.23862 -320.199788 
L 252.86137 -319.529978 
L 251.484121 -318.536847 
L 250.106871 -317.120398 
L 248.729621 -315.217292 
L 247.352371 -312.903961 
L 245.975121 -310.241658 
L 244.597871 -307.286492 
L 243.220621 -304.195159 
L 241.843371 -301.044108 
L 240.466122 -297.647518 
L 239.088872 -293.851837 
L 237.711622 -289.917243 
L 236.334372 -286.285213 
L 234.957122 -282.956903 
L 233.579872 -279.396353 
L 232.202622 -275.176585 
L 230.825372 -270.496009 
L 229.448122 -265.861243 
L 228.070873 -261.430005 
L 226.693623 -256.934686 
L 225.316373 -252.149224 
L 223.939123 -247.1439 
L 222.561873 -242.109521 
L 221.184623 -237.120792 
L 219.807373 -232.075898 
L 218.430123 -226.850386 
L 217.052873 -221.511255 
L 215.675624 -216.226575 
L 214.298374 -210.959741 
L 212.921124 -205.539184 
L 211.543874 -200.063074 
L 210.166624 -194.872292 
L 208.789374 -190.062649 
L 207.412124 -185.355788 
L 206.034874 -180.475864 
L 204.657624 -175.412171 
L 203.280375 -170.310789 
L 201.903125 -165.268173 
L 200.525875 -160.270592 
L 199.148625 -155.298049 
L 197.771375 -150.425963 
L 196.394125 -145.712452 
L 195.016875 -141.046572 
L 193.639625 -136.290192 
L 192.262376 -131.479288 
L 190.885126 -126.771872 
L 189.507876 -122.332435 
L 188.130626 -118.289069 
L 186.753376 -114.653162 
L 185.376126 -111.228244 
L 183.998876 -107.681415 
L 182.621626 -103.820545 
L 181.244376 -99.793908 
L 179.867127 -95.91912 
L 178.489877 -92.35861 
L 177.112627 -89.054049 
L 175.735377 -85.881217 
L 174.358127 -82.75794 
L 172.980877 -79.675946 
L 171.603627 -76.688495 
L 170.226377 -73.836705 
L 168.849127 -71.110806 
L 167.471878 -68.514393 
L 166.094628 -66.107931 
L 164.717378 -63.906208 
L 163.340128 -61.790369 
L 161.962878 -59.633446 
L 160.585628 -57.461052 
L 159.208378 -55.399135 
L 157.831128 -53.515 
L 156.453878 -51.781982 
L 155.076629 -50.15089 
L 153.699379 -48.594207 
L 152.322129 -47.115733 
L 150.944879 -45.734583 
L 149.567629 -44.448275 
L 148.190379 -43.237809 
L 146.813129 -42.09047 
L 145.435879 -40.998209 
L 144.05863 -39.975128 
L 142.68138 -39.049338 
L 141.30413 -38.198391 
L 139.92688 -37.361055 
L 138.54963 -36.524329 
L 137.17238 -35.729447 
L 135.79513 -35.006841 
L 134.41788 -34.353334 
L 133.04063 -33.762189 
L 131.663381 -33.23632 
L 130.286131 -32.758578 
L 128.908881 -32.292346 
L 127.531631 -31.830702 
L 126.154381 -31.398813 
L 124.777131 -31.008081 
L 123.399881 -30.648312 
L 122.022631 -30.315997 
L 120.645381 -30.024019 
L 119.268132 -29.781362 
L 117.890882 -29.574585 
L 116.513632 -29.381556 
L 115.136382 -29.198456 
L 113.759132 -29.03582 
L 112.381882 -28.894323 
L 111.004632 -28.766876 
L 109.627382 -28.654229 
L 108.250132 -28.559176 
L 106.872883 -28.478775 
L 105.495633 -28.408748 
L 104.118383 -28.343588 
L 102.741133 -28.278208 
L 101.363883 -28.215545 
L 99.986633 -28.162054 
L 98.609383 -28.116595 
L 97.232133 -28.072732 
L 95.854884 -28.028704 
L 94.477634 -27.989704 
L 93.100384 -27.961003 
L 91.723134 -27.941682 
L 90.345884 -27.927214 
L 88.968634 -27.915388 
L 87.591384 -27.906644 
L 86.214134 -27.901478 
L 84.836884 -27.899072 
L 83.459635 -27.897212 
L 82.082385 -27.894577 
L 80.705135 -27.892327 
L 79.327885 -27.891489 
L 77.950635 -27.890925 
L 76.573385 -27.889555 
L 75.196135 -27.887955 
L 73.818885 -27.886728 
L 72.441635 -27.885745 
L 71.064386 -27.885197 
L 69.687136 -27.885273 
L 68.309886 -27.885163 
L 66.932636 -27.884033 
L 65.555386 -27.8823 
L 64.178136 -27.880932 
L 62.800886 -27.880266 
L 61.423636 -27.880053 
z
" style="stroke: #1f77b4"/>
    </defs>
    <g clip-path="url(#pbe015b0c4a)">
     <use xlink:href="#m5d69dd3a5b" x="0" y="360" style="fill: #1f77b4; fill-opacity: 0.25; stroke: #1f77b4"/>
    </g>
   </g>
   <g id="matplotlib.axis_1">
    <g id="xtick_1">
     <g id="line2d_1">
      <defs>
       <path id="mb518cb90d4" d="M 0 0 
L 0 3.5 
" style="stroke: #000000; stroke-width: 0.8"/>
      </defs>
      <g>
       <use xlink:href="#mb518cb90d4" x="82.547232" y="332.12" style="stroke: #000000; stroke-width: 0.8"/>
      </g>
     </g>
     <g id="text_1">
      <!-- 2.3 -->
      <g transform="translate(74.595669 346.718437) scale(0.1 -0.1)">
       <defs>
        <path id="DejaVuSans-32" d="M 1228 531 
L 3431 531 
L 3431 0 
L 469 0 
L 469 531 
Q 828 903 1448 1529 
Q 2069 2156 2228 2338 
Q 2531 2678 2651 2914 
Q 2772 3150 2772 3378 
Q 2772 3750 2511 3984 
Q 2250 4219 1831 4219 
Q 1534 4219 1204 4116 
Q 875 4013 500 3803 
L 500 4441 
Q 881 4594 1212 4672 
Q 1544 4750 1819 4750 
Q 2544 4750 2975 4387 
Q 3406 4025 3406 3419 
Q 3406 3131 3298 2873 
Q 3191 2616 2906 2266 
Q 2828 2175 2409 1742 
Q 1991 1309 1228 531 
z
" transform="scale(0.015625)"/>
        <path id="DejaVuSans-2e" d="M 684 794 
L 1344 794 
L 1344 0 
L 684 0 
L 684 794 
z
" transform="scale(0.015625)"/>
        <path id="DejaVuSans-33" d="M 2597 2516 
Q 3050 2419 3304 2112 
Q 3559 1806 3559 1356 
Q 3559 666 3084 287 
Q 2609 -91 1734 -91 
Q 1441 -91 1130 -33 
Q 819 25 488 141 
L 488 750 
Q 750 597 1062 519 
Q 1375 441 1716 441 
Q 2309 441 2620 675 
Q 2931 909 2931 1356 
Q 2931 1769 2642 2001 
Q 2353 2234 1838 2234 
L 1294 2234 
L 1294 2753 
L 1863 2753 
Q 2328 2753 2575 2939 
Q 2822 3125 2822 3475 
Q 2822 3834 2567 4026 
Q 2313 4219 1838 4219 
Q 1578 4219 1281 4162 
Q 984 4106 628 3988 
L 628 4550 
Q 988 4650 1302 4700 
Q 1616 4750 1894 4750 
Q 2613 4750 3031 4423 
Q 3450 4097 3450 3541 
Q 3450 3153 3228 2886 
Q 3006 2619 2597 2516 
z
" transform="scale(0.015625)"/>
       </defs>
       <use xlink:href="#DejaVuSans-32"/>
       <use xlink:href="#DejaVuSans-2e" x="63.623047"/>
       <use xlink:href="#DejaVuSans-33" x="95.410156"/>
      </g>
     </g>
    </g>
    <g id="xtick_2">
     <g id="line2d_2">
      <g>
       <use xlink:href="#mb518cb90d4" x="119.265255" y="332.12" style="stroke: #000000; stroke-width: 0.8"/>
      </g>
     </g>
     <g id="text_2">
      <!-- 2.4 -->
      <g transform="translate(111.313693 346.718437) scale(0.1 -0.1)">
       <defs>
        <path id="DejaVuSans-34" d="M 2419 4116 
L 825 1625 
L 2419 1625 
L 2419 4116 
z
M 2253 4666 
L 3047 4666 
L 3047 1625 
L 3713 1625 
L 3713 1100 
L 3047 1100 
L 3047 0 
L 2419 0 
L 2419 1100 
L 313 1100 
L 313 1709 
L 2253 4666 
z
" transform="scale(0.015625)"/>
       </defs>
       <use xlink:href="#DejaVuSans-32"/>
       <use xlink:href="#DejaVuSans-2e" x="63.623047"/>
       <use xlink:href="#DejaVuSans-34" x="95.410156"/>
      </g>
     </g>
    </g>
    <g id="xtick_3">
     <g id="line2d_3">
      <g>
       <use xlink:href="#mb518cb90d4" x="155.983279" y="332.12" style="stroke: #000000; stroke-width: 0.8"/>
      </g>
     </g>
     <g id="text_3">
      <!-- 2.5 -->
      <g transform="translate(148.031716 346.718437) scale(0.1 -0.1)">
       <defs>
        <path id="DejaVuSans-35" d="M 691 4666 
L 3169 4666 
L 3169 4134 
L 1269 4134 
L 1269 2991 
Q 1406 3038 1543 3061 
Q 1681 3084 1819 3084 
Q 2600 3084 3056 2656 
Q 3513 2228 3513 1497 
Q 3513 744 3044 326 
Q 2575 -91 1722 -91 
Q 1428 -91 1123 -41 
Q 819 9 494 109 
L 494 744 
Q 775 591 1075 516 
Q 1375 441 1709 441 
Q 2250 441 2565 725 
Q 2881 1009 2881 1497 
Q 2881 1984 2565 2268 
Q 2250 2553 1709 2553 
Q 1456 2553 1204 2497 
Q 953 2441 691 2322 
L 691 4666 
z
" transform="scale(0.015625)"/>
       </defs>
       <use xlink:href="#DejaVuSans-32"/>
       <use xlink:href="#DejaVuSans-2e" x="63.623047"/>
       <use xlink:href="#DejaVuSans-35" x="95.410156"/>
      </g>
     </g>
    </g>
    <g id="xtick_4">
     <g id="line2d_4">
      <g>
       <use xlink:href="#mb518cb90d4" x="192.701302" y="332.12" style="stroke: #000000; stroke-width: 0.8"/>
      </g>
     </g>
     <g id="text_4">
      <!-- 2.6 -->
      <g transform="translate(184.74974 346.718437) scale(0.1 -0.1)">
       <defs>
        <path id="DejaVuSans-36" d="M 2113 2584 
Q 1688 2584 1439 2293 
Q 1191 2003 1191 1497 
Q 1191 994 1439 701 
Q 1688 409 2113 409 
Q 2538 409 2786 701 
Q 3034 994 3034 1497 
Q 3034 2003 2786 2293 
Q 2538 2584 2113 2584 
z
M 3366 4563 
L 3366 3988 
Q 3128 4100 2886 4159 
Q 2644 4219 2406 4219 
Q 1781 4219 1451 3797 
Q 1122 3375 1075 2522 
Q 1259 2794 1537 2939 
Q 1816 3084 2150 3084 
Q 2853 3084 3261 2657 
Q 3669 2231 3669 1497 
Q 3669 778 3244 343 
Q 2819 -91 2113 -91 
Q 1303 -91 875 529 
Q 447 1150 447 2328 
Q 447 3434 972 4092 
Q 1497 4750 2381 4750 
Q 2619 4750 2861 4703 
Q 3103 4656 3366 4563 
z
" transform="scale(0.015625)"/>
       </defs>
       <use xlink:href="#DejaVuSans-32"/>
       <use xlink:href="#DejaVuSans-2e" x="63.623047"/>
       <use xlink:href="#DejaVuSans-36" x="95.410156"/>
      </g>
     </g>
    </g>
    <g id="xtick_5">
     <g id="line2d_5">
      <g>
       <use xlink:href="#mb518cb90d4" x="229.419326" y="332.12" style="stroke: #000000; stroke-width: 0.8"/>
      </g>
     </g>
     <g id="text_5">
      <!-- 2.7 -->
      <g transform="translate(221.467764 346.718437) scale(0.1 -0.1)">
       <defs>
        <path id="DejaVuSans-37" d="M 525 4666 
L 3525 4666 
L 3525 4397 
L 1831 0 
L 1172 0 
L 2766 4134 
L 525 4134 
L 525 4666 
z
" transform="scale(0.015625)"/>
       </defs>
       <use xlink:href="#DejaVuSans-32"/>
       <use xlink:href="#DejaVuSans-2e" x="63.623047"/>
       <use xlink:href="#DejaVuSans-37" x="95.410156"/>
      </g>
     </g>
    </g>
    <g id="xtick_6">
     <g id="line2d_6">
      <g>
       <use xlink:href="#mb518cb90d4" x="266.13735" y="332.12" style="stroke: #000000; stroke-width: 0.8"/>
      </g>
     </g>
     <g id="text_6">
      <!-- 2.8 -->
      <g transform="translate(258.185787 346.718437) scale(0.1 -0.1)">
       <defs>
        <path id="DejaVuSans-38" d="M 2034 2216 
Q 1584 2216 1326 1975 
Q 1069 1734 1069 1313 
Q 1069 891 1326 650 
Q 1584 409 2034 409 
Q 2484 409 2743 651 
Q 3003 894 3003 1313 
Q 3003 1734 2745 1975 
Q 2488 2216 2034 2216 
z
M 1403 2484 
Q 997 2584 770 2862 
Q 544 3141 544 3541 
Q 544 4100 942 4425 
Q 1341 4750 2034 4750 
Q 2731 4750 3128 4425 
Q 3525 4100 3525 3541 
Q 3525 3141 3298 2862 
Q 3072 2584 2669 2484 
Q 3125 2378 3379 2068 
Q 3634 1759 3634 1313 
Q 3634 634 3220 271 
Q 2806 -91 2034 -91 
Q 1263 -91 848 271 
Q 434 634 434 1313 
Q 434 1759 690 2068 
Q 947 2378 1403 2484 
z
M 1172 3481 
Q 1172 3119 1398 2916 
Q 1625 2713 2034 2713 
Q 2441 2713 2670 2916 
Q 2900 3119 2900 3481 
Q 2900 3844 2670 4047 
Q 2441 4250 2034 4250 
Q 1625 4250 1398 4047 
Q 1172 3844 1172 3481 
z
" transform="scale(0.015625)"/>
       </defs>
       <use xlink:href="#DejaVuSans-32"/>
       <use xlink:href="#DejaVuSans-2e" x="63.623047"/>
       <use xlink:href="#DejaVuSans-38" x="95.410156"/>
      </g>
     </g>
    </g>
    <g id="xtick_7">
     <g id="line2d_7">
      <g>
       <use xlink:href="#mb518cb90d4" x="302.855373" y="332.12" style="stroke: #000000; stroke-width: 0.8"/>
      </g>
     </g>
     <g id="text_7">
      <!-- 2.9 -->
      <g transform="translate(294.903811 346.718437) scale(0.1 -0.1)">
       <defs>
        <path id="DejaVuSans-39" d="M 703 97 
L 703 672 
Q 941 559 1184 500 
Q 1428 441 1663 441 
Q 2288 441 2617 861 
Q 2947 1281 2994 2138 
Q 2813 1869 2534 1725 
Q 2256 1581 1919 1581 
Q 1219 1581 811 2004 
Q 403 2428 403 3163 
Q 403 3881 828 4315 
Q 1253 4750 1959 4750 
Q 2769 4750 3195 4129 
Q 3622 3509 3622 2328 
Q 3622 1225 3098 567 
Q 2575 -91 1691 -91 
Q 1453 -91 1209 -44 
Q 966 3 703 97 
z
M 1959 2075 
Q 2384 2075 2632 2365 
Q 2881 2656 2881 3163 
Q 2881 3666 2632 3958 
Q 2384 4250 1959 4250 
Q 1534 4250 1286 3958 
Q 1038 3666 1038 3163 
Q 1038 2656 1286 2365 
Q 1534 2075 1959 2075 
z
" transform="scale(0.015625)"/>
       </defs>
       <use xlink:href="#DejaVuSans-32"/>
       <use xlink:href="#DejaVuSans-2e" x="63.623047"/>
       <use xlink:href="#DejaVuSans-39" x="95.410156"/>
      </g>
     </g>
    </g>
    <g id="xtick_8">
     <g id="line2d_8">
      <g>
       <use xlink:href="#mb518cb90d4" x="339.573397" y="332.12" style="stroke: #000000; stroke-width: 0.8"/>
      </g>
     </g>
     <g id="text_8">
      <!-- 3.0 -->
      <g transform="translate(331.621834 346.718437) scale(0.1 -0.1)">
       <defs>
        <path id="DejaVuSans-30" d="M 2034 4250 
Q 1547 4250 1301 3770 
Q 1056 3291 1056 2328 
Q 1056 1369 1301 889 
Q 1547 409 2034 409 
Q 2525 409 2770 889 
Q 3016 1369 3016 2328 
Q 3016 3291 2770 3770 
Q 2525 4250 2034 4250 
z
M 2034 4750 
Q 2819 4750 3233 4129 
Q 3647 3509 3647 2328 
Q 3647 1150 3233 529 
Q 2819 -91 2034 -91 
Q 1250 -91 836 529 
Q 422 1150 422 2328 
Q 422 3509 836 4129 
Q 1250 4750 2034 4750 
z
" transform="scale(0.015625)"/>
       </defs>
       <use xlink:href="#DejaVuSans-33"/>
       <use xlink:href="#DejaVuSans-2e" x="63.623047"/>
       <use xlink:href="#DejaVuSans-30" x="95.410156"/>
      </g>
     </g>
    </g>
   </g>
   <g id="matplotlib.axis_2">
    <g id="ytick_1">
     <g id="line2d_9">
      <defs>
       <path id="m186232f5fb" d="M 0 0 
L -3.5 0 
" style="stroke: #000000; stroke-width: 0.8"/>
      </defs>
      <g>
       <use xlink:href="#m186232f5fb" x="47.72" y="332.12" style="stroke: #000000; stroke-width: 0.8"/>
      </g>
     </g>
     <g id="text_9">
      <!-- 0.0 -->
      <g transform="translate(24.816875 335.919219) scale(0.1 -0.1)">
       <use xlink:href="#DejaVuSans-30"/>
       <use xlink:href="#DejaVuSans-2e" x="63.623047"/>
       <use xlink:href="#DejaVuSans-30" x="95.410156"/>
      </g>
     </g>
    </g>
    <g id="ytick_2">
     <g id="line2d_10">
      <g>
       <use xlink:href="#m186232f5fb" x="47.72" y="294.031596" style="stroke: #000000; stroke-width: 0.8"/>
      </g>
     </g>
     <g id="text_10">
      <!-- 0.5 -->
      <g transform="translate(24.816875 297.830814) scale(0.1 -0.1)">
       <use xlink:href="#DejaVuSans-30"/>
       <use xlink:href="#DejaVuSans-2e" x="63.623047"/>
       <use xlink:href="#DejaVuSans-35" x="95.410156"/>
      </g>
     </g>
    </g>
    <g id="ytick_3">
     <g id="line2d_11">
      <g>
       <use xlink:href="#m186232f5fb" x="47.72" y="255.943191" style="stroke: #000000; stroke-width: 0.8"/>
      </g>
     </g>
     <g id="text_11">
      <!-- 1.0 -->
      <g transform="translate(24.816875 259.74241) scale(0.1 -0.1)">
       <defs>
        <path id="DejaVuSans-31" d="M 794 531 
L 1825 531 
L 1825 4091 
L 703 3866 
L 703 4441 
L 1819 4666 
L 2450 4666 
L 2450 531 
L 3481 531 
L 3481 0 
L 794 0 
L 794 531 
z
" transform="scale(0.015625)"/>
       </defs>
       <use xlink:href="#DejaVuSans-31"/>
       <use xlink:href="#DejaVuSans-2e" x="63.623047"/>
       <use xlink:href="#DejaVuSans-30" x="95.410156"/>
      </g>
     </g>
    </g>
    <g id="ytick_4">
     <g id="line2d_12">
      <g>
       <use xlink:href="#m186232f5fb" x="47.72" y="217.854787" style="stroke: #000000; stroke-width: 0.8"/>
      </g>
     </g>
     <g id="text_12">
      <!-- 1.5 -->
      <g transform="translate(24.816875 221.654006) scale(0.1 -0.1)">
       <use xlink:href="#DejaVuSans-31"/>
       <use xlink:href="#DejaVuSans-2e" x="63.623047"/>
       <use xlink:href="#DejaVuSans-35" x="95.410156"/>
      </g>
     </g>
    </g>
    <g id="ytick_5">
     <g id="line2d_13">
      <g>
       <use xlink:href="#m186232f5fb" x="47.72" y="179.766383" style="stroke: #000000; stroke-width: 0.8"/>
      </g>
     </g>
     <g id="text_13">
      <!-- 2.0 -->
      <g transform="translate(24.816875 183.565601) scale(0.1 -0.1)">
       <use xlink:href="#DejaVuSans-32"/>
       <use xlink:href="#DejaVuSans-2e" x="63.623047"/>
       <use xlink:href="#DejaVuSans-30" x="95.410156"/>
      </g>
     </g>
    </g>
    <g id="ytick_6">
     <g id="line2d_14">
      <g>
       <use xlink:href="#m186232f5fb" x="47.72" y="141.677978" style="stroke: #000000; stroke-width: 0.8"/>
      </g>
     </g>
     <g id="text_14">
      <!-- 2.5 -->
      <g transform="translate(24.816875 145.477197) scale(0.1 -0.1)">
       <use xlink:href="#DejaVuSans-32"/>
       <use xlink:href="#DejaVuSans-2e" x="63.623047"/>
       <use xlink:href="#DejaVuSans-35" x="95.410156"/>
      </g>
     </g>
    </g>
    <g id="ytick_7">
     <g id="line2d_15">
      <g>
       <use xlink:href="#m186232f5fb" x="47.72" y="103.589574" style="stroke: #000000; stroke-width: 0.8"/>
      </g>
     </g>
     <g id="text_15">
      <!-- 3.0 -->
      <g transform="translate(24.816875 107.388793) scale(0.1 -0.1)">
       <use xlink:href="#DejaVuSans-33"/>
       <use xlink:href="#DejaVuSans-2e" x="63.623047"/>
       <use xlink:href="#DejaVuSans-30" x="95.410156"/>
      </g>
     </g>
    </g>
    <g id="ytick_8">
     <g id="line2d_16">
      <g>
       <use xlink:href="#m186232f5fb" x="47.72" y="65.50117" style="stroke: #000000; stroke-width: 0.8"/>
      </g>
     </g>
     <g id="text_16">
      <!-- 3.5 -->
      <g transform="translate(24.816875 69.300388) scale(0.1 -0.1)">
       <use xlink:href="#DejaVuSans-33"/>
       <use xlink:href="#DejaVuSans-2e" x="63.623047"/>
       <use xlink:href="#DejaVuSans-35" x="95.410156"/>
      </g>
     </g>
    </g>
    <g id="ytick_9">
     <g id="line2d_17">
      <g>
       <use xlink:href="#m186232f5fb" x="47.72" y="27.412765" style="stroke: #000000; stroke-width: 0.8"/>
      </g>
     </g>
     <g id="text_17">
      <!-- 4.0 -->
      <g transform="translate(24.816875 31.211984) scale(0.1 -0.1)">
       <use xlink:href="#DejaVuSans-34"/>
       <use xlink:href="#DejaVuSans-2e" x="63.623047"/>
       <use xlink:href="#DejaVuSans-30" x="95.410156"/>
      </g>
     </g>
    </g>
    <g id="text_18">
     <!-- Density -->
     <g transform="translate(18.737188 191.157296) rotate(-90) scale(0.1 -0.1)">
      <defs>
       <path id="DejaVuSans-44" d="M 1259 4147 
L 1259 519 
L 2022 519 
Q 2988 519 3436 956 
Q 3884 1394 3884 2338 
Q 3884 3275 3436 3711 
Q 2988 4147 2022 4147 
L 1259 4147 
z
M 628 4666 
L 1925 4666 
Q 3281 4666 3915 4102 
Q 4550 3538 4550 2338 
Q 4550 1131 3912 565 
Q 3275 0 1925 0 
L 628 0 
L 628 4666 
z
" transform="scale(0.015625)"/>
       <path id="DejaVuSans-65" d="M 3597 1894 
L 3597 1613 
L 953 1613 
Q 991 1019 1311 708 
Q 1631 397 2203 397 
Q 2534 397 2845 478 
Q 3156 559 3463 722 
L 3463 178 
Q 3153 47 2828 -22 
Q 2503 -91 2169 -91 
Q 1331 -91 842 396 
Q 353 884 353 1716 
Q 353 2575 817 3079 
Q 1281 3584 2069 3584 
Q 2775 3584 3186 3129 
Q 3597 2675 3597 1894 
z
M 3022 2063 
Q 3016 2534 2758 2815 
Q 2500 3097 2075 3097 
Q 1594 3097 1305 2825 
Q 1016 2553 972 2059 
L 3022 2063 
z
" transform="scale(0.015625)"/>
       <path id="DejaVuSans-6e" d="M 3513 2113 
L 3513 0 
L 2938 0 
L 2938 2094 
Q 2938 2591 2744 2837 
Q 2550 3084 2163 3084 
Q 1697 3084 1428 2787 
Q 1159 2491 1159 1978 
L 1159 0 
L 581 0 
L 581 3500 
L 1159 3500 
L 1159 2956 
Q 1366 3272 1645 3428 
Q 1925 3584 2291 3584 
Q 2894 3584 3203 3211 
Q 3513 2838 3513 2113 
z
" transform="scale(0.015625)"/>
       <path id="DejaVuSans-73" d="M 2834 3397 
L 2834 2853 
Q 2591 2978 2328 3040 
Q 2066 3103 1784 3103 
Q 1356 3103 1142 2972 
Q 928 2841 928 2578 
Q 928 2378 1081 2264 
Q 1234 2150 1697 2047 
L 1894 2003 
Q 2506 1872 2764 1633 
Q 3022 1394 3022 966 
Q 3022 478 2636 193 
Q 2250 -91 1575 -91 
Q 1294 -91 989 -36 
Q 684 19 347 128 
L 347 722 
Q 666 556 975 473 
Q 1284 391 1588 391 
Q 1994 391 2212 530 
Q 2431 669 2431 922 
Q 2431 1156 2273 1281 
Q 2116 1406 1581 1522 
L 1381 1569 
Q 847 1681 609 1914 
Q 372 2147 372 2553 
Q 372 3047 722 3315 
Q 1072 3584 1716 3584 
Q 2034 3584 2315 3537 
Q 2597 3491 2834 3397 
z
" transform="scale(0.015625)"/>
       <path id="DejaVuSans-69" d="M 603 3500 
L 1178 3500 
L 1178 0 
L 603 0 
L 603 3500 
z
M 603 4863 
L 1178 4863 
L 1178 4134 
L 603 4134 
L 603 4863 
z
" transform="scale(0.015625)"/>
       <path id="DejaVuSans-74" d="M 1172 4494 
L 1172 3500 
L 2356 3500 
L 2356 3053 
L 1172 3053 
L 1172 1153 
Q 1172 725 1289 603 
Q 1406 481 1766 481 
L 2356 481 
L 2356 0 
L 1766 0 
Q 1100 0 847 248 
Q 594 497 594 1153 
L 594 3053 
L 172 3053 
L 172 3500 
L 594 3500 
L 594 4494 
L 1172 4494 
z
" transform="scale(0.015625)"/>
       <path id="DejaVuSans-79" d="M 2059 -325 
Q 1816 -950 1584 -1140 
Q 1353 -1331 966 -1331 
L 506 -1331 
L 506 -850 
L 844 -850 
Q 1081 -850 1212 -737 
Q 1344 -625 1503 -206 
L 1606 56 
L 191 3500 
L 800 3500 
L 1894 763 
L 2988 3500 
L 3597 3500 
L 2059 -325 
z
" transform="scale(0.015625)"/>
      </defs>
      <use xlink:href="#DejaVuSans-44"/>
      <use xlink:href="#DejaVuSans-65" x="77.001953"/>
      <use xlink:href="#DejaVuSans-6e" x="138.525391"/>
      <use xlink:href="#DejaVuSans-73" x="201.904297"/>
      <use xlink:href="#DejaVuSans-69" x="254.003906"/>
      <use xlink:href="#DejaVuSans-74" x="281.787109"/>
      <use xlink:href="#DejaVuSans-79" x="320.996094"/>
     </g>
    </g>
   </g>
   <g id="line2d_18">
    <path d="M 266.13735 332.12 
L 266.13735 277.729759 
" clip-path="url(#pbe015b0c4a)" style="fill: none; stroke: #1f77b4; stroke-width: 1.5; stroke-linecap: square"/>
   </g>
   <g id="LineCollection_1">
    <path d="M 179.98649 332.12 
L 179.98649 27.412765 
" clip-path="url(#pbe015b0c4a)" style="fill: none; stroke: #ff0000; stroke-width: 1.5"/>
    <path d="M 249.005091 332.12 
L 249.005091 27.412765 
" clip-path="url(#pbe015b0c4a)" style="fill: none; stroke: #ff0000; stroke-width: 1.5"/>
    <path d="M 300.303137 332.12 
L 300.303137 27.412765 
" clip-path="url(#pbe015b0c4a)" style="fill: none; stroke: #ff0000; stroke-width: 1.5"/>
   </g>
   <g id="patch_3">
    <path d="M 47.72 332.12 
L 47.72 12.177404 
" style="fill: none; stroke: #000000; stroke-width: 0.8; stroke-linejoin: miter; stroke-linecap: square"/>
   </g>
   <g id="patch_4">
    <path d="M 47.72 332.12 
L 349.2 332.12 
" style="fill: none; stroke: #000000; stroke-width: 0.8; stroke-linejoin: miter; stroke-linecap: square"/>
   </g>
  </g>
 </g>
 <defs>
  <clipPath id="pbe015b0c4a">
   <rect x="47.72" y="12.177404" width="301.48" height="319.942596"/>
  </clipPath>
 </defs>
</svg>
